<?xml version="1.0" encoding="UTF-8" standalone="no"?><svg xmlns="http://www.w3.org/2000/svg" xmlns:xlink="http://www.w3.org/1999/xlink" contentScriptType="application/ecmascript" contentStyleType="text/css" height="405px" preserveAspectRatio="none" style="width:384px;height:405px;" version="1.1" viewBox="0 0 384 405" width="384px" zoomAndPan="magnify"><defs/><g><ellipse cx="191.5" cy="20" fill="#000000" rx="10" ry="10" style="stroke: none; stroke-width: 1.0;"/><rect fill="#FEFECE" height="34.1328" rx="12.5" ry="12.5" style="stroke: #A80036; stroke-width: 1.5;" width="219" x="82" y="50"/><text fill="#000000" font-family="sans-serif" font-size="12" lengthAdjust="spacingAndGlyphs" textLength="199" x="92" y="71.6016">printf("食品名を入力してください: ")</text><rect fill="#FEFECE" height="34.1328" rx="12.5" ry="12.5" style="stroke: #A80036; stroke-width: 1.5;" width="107" x="138" y="104.1328"/><text fill="#000000" font-family="sans-serif" font-size="12" lengthAdjust="spacingAndGlyphs" textLength="87" x="148" y="125.7344">scanf("%s", buf)</text><rect fill="#FEFECE" height="34.1328" rx="12.5" ry="12.5" style="stroke: #A80036; stroke-width: 1.5;" width="363" x="10" y="158.2656"/><text fill="#000000" font-family="sans-serif" font-size="12" lengthAdjust="spacingAndGlyphs" textLength="343" x="20" y="179.8672">printf("その食品のカロリーを入力してください [kcal/100g]: ")</text><rect fill="#FEFECE" height="34.1328" rx="12.5" ry="12.5" style="stroke: #A80036; stroke-width: 1.5;" width="113" x="135" y="212.3984"/><text fill="#000000" font-family="sans-serif" font-size="12" lengthAdjust="spacingAndGlyphs" textLength="93" x="145" y="234">scanf("%lf", &amp;cal)</text><rect fill="#FEFECE" height="34.1328" rx="12.5" ry="12.5" style="stroke: #A80036; stroke-width: 1.5;" width="126" x="128.5" y="266.5313"/><text fill="#000000" font-family="sans-serif" font-size="12" lengthAdjust="spacingAndGlyphs" textLength="106" x="138.5" y="288.1328">add_food(buf, cal)</text><rect fill="#FEFECE" height="34.1328" rx="12.5" ry="12.5" style="stroke: #A80036; stroke-width: 1.5;" width="177" x="103" y="320.6641"/><text fill="#000000" font-family="sans-serif" font-size="12" lengthAdjust="spacingAndGlyphs" textLength="157" x="113" y="342.2656">printf("登録しました．\n\n")</text><ellipse cx="191.5" cy="384.7969" fill="none" rx="10" ry="10" style="stroke: #000000; stroke-width: 1.0;"/><ellipse cx="192" cy="385.2969" fill="#000000" rx="6" ry="6" style="stroke: none; stroke-width: 1.0;"/><line style="stroke: #A80036; stroke-width: 1.5;" x1="191.5" x2="191.5" y1="30" y2="50"/><polygon fill="#A80036" points="187.5,40,191.5,50,195.5,40,191.5,44" style="stroke: #A80036; stroke-width: 1.0;"/><line style="stroke: #A80036; stroke-width: 1.5;" x1="191.5" x2="191.5" y1="84.1328" y2="104.1328"/><polygon fill="#A80036" points="187.5,94.1328,191.5,104.1328,195.5,94.1328,191.5,98.1328" style="stroke: #A80036; stroke-width: 1.0;"/><line style="stroke: #A80036; stroke-width: 1.5;" x1="191.5" x2="191.5" y1="138.2656" y2="158.2656"/><polygon fill="#A80036" points="187.5,148.2656,191.5,158.2656,195.5,148.2656,191.5,152.2656" style="stroke: #A80036; stroke-width: 1.0;"/><line style="stroke: #A80036; stroke-width: 1.5;" x1="191.5" x2="191.5" y1="192.3984" y2="212.3984"/><polygon fill="#A80036" points="187.5,202.3984,191.5,212.3984,195.5,202.3984,191.5,206.3984" style="stroke: #A80036; stroke-width: 1.0;"/><line style="stroke: #A80036; stroke-width: 1.5;" x1="191.5" x2="191.5" y1="246.5313" y2="266.5313"/><polygon fill="#A80036" points="187.5,256.5313,191.5,266.5313,195.5,256.5313,191.5,260.5313" style="stroke: #A80036; stroke-width: 1.0;"/><line style="stroke: #A80036; stroke-width: 1.5;" x1="191.5" x2="191.5" y1="300.6641" y2="320.6641"/><polygon fill="#A80036" points="187.5,310.6641,191.5,320.6641,195.5,310.6641,191.5,314.6641" style="stroke: #A80036; stroke-width: 1.0;"/><line style="stroke: #A80036; stroke-width: 1.5;" x1="191.5" x2="191.5" y1="354.7969" y2="374.7969"/><polygon fill="#A80036" points="187.5,364.7969,191.5,374.7969,195.5,364.7969,191.5,368.7969" style="stroke: #A80036; stroke-width: 1.0;"/><!--
@startuml
skinparam shadowing false

start
:printf("食品名を入力してください: ");
:scanf("%s", buf);
:printf("その食品のカロリーを入力してください [kcal/100g]: ");
:scanf("%lf", &cal);
:add_food(buf, cal);
:printf("登録しました．\\n\\n");
stop
@enduml

PlantUML version 1.2018.08(Sun Jun 24 21:31:00 JST 2018)
(GPL source distribution)
Java Runtime: Java(TM) SE Runtime Environment
JVM: Java HotSpot(TM) 64-Bit Server VM
Java Version: 1.8.0_102-b14
Operating System: Mac OS X
OS Version: 10.11.6
Default Encoding: UTF-8
Language: ja
Country: JP
--></g></svg>