<?xml version="1.0" encoding="UTF-8" standalone="no"?><svg xmlns="http://www.w3.org/2000/svg" xmlns:xlink="http://www.w3.org/1999/xlink" contentScriptType="application/ecmascript" contentStyleType="text/css" height="486px" preserveAspectRatio="none" style="width:277px;height:486px;" version="1.1" viewBox="0 0 277 486" width="277px" zoomAndPan="magnify"><defs/><g><ellipse cx="131.5" cy="20" fill="#000000" rx="10" ry="10" style="stroke: none; stroke-width: 1.0;"/><rect fill="#FEFECE" height="34.1328" rx="12.5" ry="12.5" style="stroke: #A80036; stroke-width: 1.5;" width="78" x="92.5" y="50"/><text fill="#000000" font-family="sans-serif" font-size="12" lengthAdjust="spacingAndGlyphs" textLength="58" x="102.5" y="71.6016">index = 0</text><rect fill="#FEFECE" height="34.1328" rx="12.5" ry="12.5" style="stroke: #A80036; stroke-width: 1.5;" width="91" x="86" y="196.6104"/><text fill="#000000" font-family="sans-serif" font-size="12" lengthAdjust="spacingAndGlyphs" textLength="71" x="96" y="218.2119">return index</text><ellipse cx="131.5" cy="273.1768" fill="none" rx="10" ry="10" style="stroke: #000000; stroke-width: 1.0;"/><ellipse cx="132" cy="273.6768" fill="#000000" rx="6" ry="6" style="stroke: none; stroke-width: 1.0;"/><polygon fill="#FEFECE" points="48,148.1328,215,148.1328,227,160.1328,215,172.1328,48,172.1328,36,160.1328,48,148.1328" style="stroke: #A80036; stroke-width: 1.5;"/><text fill="#000000" font-family="sans-serif" font-size="11" lengthAdjust="spacingAndGlyphs" textLength="22" x="135.5" y="182.7676">true</text><text fill="#000000" font-family="sans-serif" font-size="11" lengthAdjust="spacingAndGlyphs" textLength="167" x="48" y="164.29">strcmp(str, foods[index]) == 0</text><rect fill="#FEFECE" height="34.1328" rx="12.5" ry="12.5" style="stroke: #A80036; stroke-width: 1.5;" width="72" x="95.5" y="325.1768"/><text fill="#000000" font-family="sans-serif" font-size="12" lengthAdjust="spacingAndGlyphs" textLength="52" x="105.5" y="346.7783">index++</text><polygon fill="#FEFECE" points="93.5,104.1328,169.5,104.1328,181.5,116.1328,169.5,128.1328,93.5,128.1328,81.5,116.1328,93.5,104.1328" style="stroke: #A80036; stroke-width: 1.5;"/><text fill="#000000" font-family="sans-serif" font-size="11" lengthAdjust="spacingAndGlyphs" textLength="76" x="93.5" y="120.29">index &lt; count</text><rect fill="#FEFECE" height="34.1328" rx="12.5" ry="12.5" style="stroke: #A80036; stroke-width: 1.5;" width="91" x="86" y="401.3096"/><text fill="#000000" font-family="sans-serif" font-size="12" lengthAdjust="spacingAndGlyphs" textLength="71" x="96" y="422.9111">return index</text><ellipse cx="131.5" cy="465.4424" fill="none" rx="10" ry="10" style="stroke: #000000; stroke-width: 1.0;"/><ellipse cx="132" cy="465.9424" fill="#000000" rx="6" ry="6" style="stroke: none; stroke-width: 1.0;"/><line style="stroke: #A80036; stroke-width: 1.5;" x1="131.5" x2="131.5" y1="30" y2="50"/><polygon fill="#A80036" points="127.5,40,131.5,50,135.5,40,131.5,44" style="stroke: #A80036; stroke-width: 1.0;"/><line style="stroke: #A80036; stroke-width: 1.5;" x1="131.5" x2="131.5" y1="230.7432" y2="263.1768"/><polygon fill="#A80036" points="127.5,253.1768,131.5,263.1768,135.5,253.1768,131.5,257.1768" style="stroke: #A80036; stroke-width: 1.0;"/><line style="stroke: #A80036; stroke-width: 1.5;" x1="131.5" x2="131.5" y1="172.1328" y2="196.6104"/><polygon fill="#A80036" points="127.5,186.6104,131.5,196.6104,135.5,186.6104,131.5,190.6104" style="stroke: #A80036; stroke-width: 1.0;"/><line style="stroke: #A80036; stroke-width: 1.5;" x1="227" x2="239" y1="160.1328" y2="160.1328"/><polygon fill="#A80036" points="235,228.1768,239,238.1768,243,228.1768,239,232.1768" style="stroke: #A80036; stroke-width: 1.5;"/><line style="stroke: #A80036; stroke-width: 1.5;" x1="239" x2="239" y1="160.1328" y2="305.1768"/><line style="stroke: #A80036; stroke-width: 1.5;" x1="239" x2="131.5" y1="305.1768" y2="305.1768"/><line style="stroke: #A80036; stroke-width: 1.5;" x1="131.5" x2="131.5" y1="305.1768" y2="325.1768"/><polygon fill="#A80036" points="127.5,315.1768,131.5,325.1768,135.5,315.1768,131.5,319.1768" style="stroke: #A80036; stroke-width: 1.0;"/><line style="stroke: #A80036; stroke-width: 1.5;" x1="131.5" x2="131.5" y1="128.1328" y2="148.1328"/><polygon fill="#A80036" points="127.5,138.1328,131.5,148.1328,135.5,138.1328,131.5,142.1328" style="stroke: #A80036; stroke-width: 1.0;"/><line style="stroke: #A80036; stroke-width: 1.5;" x1="131.5" x2="131.5" y1="359.3096" y2="369.3096"/><line style="stroke: #A80036; stroke-width: 1.5;" x1="131.5" x2="251" y1="369.3096" y2="369.3096"/><polygon fill="#A80036" points="247,262.1768,251,252.1768,255,262.1768,251,258.1768" style="stroke: #A80036; stroke-width: 1.5;"/><line style="stroke: #A80036; stroke-width: 1.5;" x1="251" x2="251" y1="116.1328" y2="369.3096"/><line style="stroke: #A80036; stroke-width: 1.5;" x1="251" x2="181.5" y1="116.1328" y2="116.1328"/><polygon fill="#A80036" points="191.5,112.1328,181.5,116.1328,191.5,120.1328,187.5,116.1328" style="stroke: #A80036; stroke-width: 1.0;"/><line style="stroke: #A80036; stroke-width: 1.5;" x1="81.5" x2="24" y1="116.1328" y2="116.1328"/><polygon fill="#A80036" points="20,248.1768,24,258.1768,28,248.1768,24,252.1768" style="stroke: #A80036; stroke-width: 1.5;"/><line style="stroke: #A80036; stroke-width: 1.5;" x1="24" x2="24" y1="116.1328" y2="381.3096"/><line style="stroke: #A80036; stroke-width: 1.5;" x1="24" x2="131.5" y1="381.3096" y2="381.3096"/><line style="stroke: #A80036; stroke-width: 1.5;" x1="131.5" x2="131.5" y1="381.3096" y2="401.3096"/><polygon fill="#A80036" points="127.5,391.3096,131.5,401.3096,135.5,391.3096,131.5,395.3096" style="stroke: #A80036; stroke-width: 1.0;"/><line style="stroke: #A80036; stroke-width: 1.5;" x1="131.5" x2="131.5" y1="84.1328" y2="104.1328"/><polygon fill="#A80036" points="127.5,94.1328,131.5,104.1328,135.5,94.1328,131.5,98.1328" style="stroke: #A80036; stroke-width: 1.0;"/><line style="stroke: #A80036; stroke-width: 1.5;" x1="131.5" x2="131.5" y1="435.4424" y2="455.4424"/><polygon fill="#A80036" points="127.5,445.4424,131.5,455.4424,135.5,445.4424,131.5,449.4424" style="stroke: #A80036; stroke-width: 1.0;"/><!--
@startuml
skinparam shadowing false

start
:index = 0;
while (index < count)
    if (strcmp(str, foods[index]) == 0) then (true)
      :return index;
      stop
    endif
:index++;
endwhile
:return index;
stop
@enduml

PlantUML version 1.2018.08(Sun Jun 24 21:31:00 JST 2018)
(GPL source distribution)
Java Runtime: Java(TM) SE Runtime Environment
JVM: Java HotSpot(TM) 64-Bit Server VM
Java Version: 1.8.0_102-b14
Operating System: Mac OS X
OS Version: 10.11.6
Default Encoding: UTF-8
Language: ja
Country: JP
--></g></svg>