<?xml version="1.0" encoding="UTF-8" standalone="no"?><svg xmlns="http://www.w3.org/2000/svg" xmlns:xlink="http://www.w3.org/1999/xlink" contentScriptType="application/ecmascript" contentStyleType="text/css" height="471px" preserveAspectRatio="none" style="width:206px;height:471px;" version="1.1" viewBox="0 0 206 471" width="206px" zoomAndPan="magnify"><defs/><g><ellipse cx="102" cy="20" fill="#000000" rx="10" ry="10" style="stroke: none; stroke-width: 1.0;"/><rect fill="#FEFECE" height="34.1328" rx="12.5" ry="12.5" style="stroke: #A80036; stroke-width: 1.5;" width="140" x="32" y="50"/><text fill="#000000" font-family="sans-serif" font-size="12" lengthAdjust="spacingAndGlyphs" textLength="39" x="42" y="71.6016">printf("</text><text fill="#000000" font-family="sans-serif" font-size="12" lengthAdjust="spacingAndGlyphs" text-decoration="line-through" textLength="60" x="81" y="71.6016">食品名一覧</text><text fill="#000000" font-family="sans-serif" font-size="12" lengthAdjust="spacingAndGlyphs" textLength="21" x="141" y="71.6016">\n")</text><rect fill="#FEFECE" height="34.1328" rx="12.5" ry="12.5" style="stroke: #A80036; stroke-width: 1.5;" width="41" x="81.5" y="104.1328"/><text fill="#000000" font-family="sans-serif" font-size="12" lengthAdjust="spacingAndGlyphs" textLength="21" x="91.5" y="125.7344">i=0</text><rect fill="#FEFECE" height="34.1328" rx="12.5" ry="12.5" style="stroke: #A80036; stroke-width: 1.5;" width="132" x="36" y="202.2656"/><text fill="#000000" font-family="sans-serif" font-size="12" lengthAdjust="spacingAndGlyphs" textLength="112" x="46" y="223.8672">printf("%s", foods[i])</text><rect fill="#FEFECE" height="34.1328" rx="12.5" ry="12.5" style="stroke: #A80036; stroke-width: 1.5;" width="77" x="63.5" y="256.3984"/><text fill="#000000" font-family="sans-serif" font-size="12" lengthAdjust="spacingAndGlyphs" textLength="57" x="73.5" y="278">printf("\t")</text><rect fill="#FEFECE" height="34.1328" rx="12.5" ry="12.5" style="stroke: #A80036; stroke-width: 1.5;" width="43" x="80.5" y="310.5313"/><text fill="#000000" font-family="sans-serif" font-size="12" lengthAdjust="spacingAndGlyphs" textLength="23" x="90.5" y="332.1328">i++</text><polygon fill="#FEFECE" points="77.5,158.2656,126.5,158.2656,138.5,170.2656,126.5,182.2656,77.5,182.2656,65.5,170.2656,77.5,158.2656" style="stroke: #A80036; stroke-width: 1.5;"/><text fill="#000000" font-family="sans-serif" font-size="11" lengthAdjust="spacingAndGlyphs" textLength="49" x="77.5" y="174.4229">i &lt; count</text><rect fill="#FEFECE" height="34.1328" rx="12.5" ry="12.5" style="stroke: #A80036; stroke-width: 1.5;" width="121" x="41.5" y="386.6641"/><text fill="#000000" font-family="sans-serif" font-size="12" lengthAdjust="spacingAndGlyphs" textLength="52" x="51.5" y="408.2656">printf("\n</text><text fill="#000000" font-family="sans-serif" font-size="12" lengthAdjust="spacingAndGlyphs" text-decoration="line-through" textLength="7" x="103.5" y="408.2656">-</text><text fill="#000000" font-family="sans-serif" font-size="12" lengthAdjust="spacingAndGlyphs" text-decoration="line-through" textLength="7" x="110.5" y="408.2656">-</text><text fill="#000000" font-family="sans-serif" font-size="12" lengthAdjust="spacingAndGlyphs" textLength="35" x="117.5" y="408.2656">--\n")</text><ellipse cx="102" cy="450.7969" fill="none" rx="10" ry="10" style="stroke: #000000; stroke-width: 1.0;"/><ellipse cx="102.5" cy="451.2969" fill="#000000" rx="6" ry="6" style="stroke: none; stroke-width: 1.0;"/><line style="stroke: #A80036; stroke-width: 1.5;" x1="102" x2="102" y1="30" y2="50"/><polygon fill="#A80036" points="98,40,102,50,106,40,102,44" style="stroke: #A80036; stroke-width: 1.0;"/><line style="stroke: #A80036; stroke-width: 1.5;" x1="102" x2="102" y1="84.1328" y2="104.1328"/><polygon fill="#A80036" points="98,94.1328,102,104.1328,106,94.1328,102,98.1328" style="stroke: #A80036; stroke-width: 1.0;"/><line style="stroke: #A80036; stroke-width: 1.5;" x1="102" x2="102" y1="236.3984" y2="256.3984"/><polygon fill="#A80036" points="98,246.3984,102,256.3984,106,246.3984,102,250.3984" style="stroke: #A80036; stroke-width: 1.0;"/><line style="stroke: #A80036; stroke-width: 1.5;" x1="102" x2="102" y1="290.5313" y2="310.5313"/><polygon fill="#A80036" points="98,300.5313,102,310.5313,106,300.5313,102,304.5313" style="stroke: #A80036; stroke-width: 1.0;"/><line style="stroke: #A80036; stroke-width: 1.5;" x1="102" x2="102" y1="182.2656" y2="202.2656"/><polygon fill="#A80036" points="98,192.2656,102,202.2656,106,192.2656,102,196.2656" style="stroke: #A80036; stroke-width: 1.0;"/><line style="stroke: #A80036; stroke-width: 1.5;" x1="102" x2="102" y1="344.6641" y2="354.6641"/><line style="stroke: #A80036; stroke-width: 1.5;" x1="102" x2="180" y1="354.6641" y2="354.6641"/><polygon fill="#A80036" points="176,271.4648,180,261.4648,184,271.4648,180,267.4648" style="stroke: #A80036; stroke-width: 1.5;"/><line style="stroke: #A80036; stroke-width: 1.5;" x1="180" x2="180" y1="170.2656" y2="354.6641"/><line style="stroke: #A80036; stroke-width: 1.5;" x1="180" x2="138.5" y1="170.2656" y2="170.2656"/><polygon fill="#A80036" points="148.5,166.2656,138.5,170.2656,148.5,174.2656,144.5,170.2656" style="stroke: #A80036; stroke-width: 1.0;"/><line style="stroke: #A80036; stroke-width: 1.5;" x1="65.5" x2="24" y1="170.2656" y2="170.2656"/><polygon fill="#A80036" points="20,257.4648,24,267.4648,28,257.4648,24,261.4648" style="stroke: #A80036; stroke-width: 1.5;"/><line style="stroke: #A80036; stroke-width: 1.5;" x1="24" x2="24" y1="170.2656" y2="366.6641"/><line style="stroke: #A80036; stroke-width: 1.5;" x1="24" x2="102" y1="366.6641" y2="366.6641"/><line style="stroke: #A80036; stroke-width: 1.5;" x1="102" x2="102" y1="366.6641" y2="386.6641"/><polygon fill="#A80036" points="98,376.6641,102,386.6641,106,376.6641,102,380.6641" style="stroke: #A80036; stroke-width: 1.0;"/><line style="stroke: #A80036; stroke-width: 1.5;" x1="102" x2="102" y1="138.2656" y2="158.2656"/><polygon fill="#A80036" points="98,148.2656,102,158.2656,106,148.2656,102,152.2656" style="stroke: #A80036; stroke-width: 1.0;"/><line style="stroke: #A80036; stroke-width: 1.5;" x1="102" x2="102" y1="420.7969" y2="440.7969"/><polygon fill="#A80036" points="98,430.7969,102,440.7969,106,430.7969,102,434.7969" style="stroke: #A80036; stroke-width: 1.0;"/><!--
@startuml
skinparam shadowing false

start
:printf("- -食品名一覧- -\\n");
:i=0;
while (i < count)
  :printf("%s", foods[i]);
  :printf("\\t");
  :i++;
endwhile
:printf("\\n- - - - - - - - - - - -\\n");
stop
@enduml

PlantUML version 1.2018.08(Sun Jun 24 21:31:00 JST 2018)
(GPL source distribution)
Java Runtime: Java(TM) SE Runtime Environment
JVM: Java HotSpot(TM) 64-Bit Server VM
Java Version: 1.8.0_102-b14
Operating System: Mac OS X
OS Version: 10.11.6
Default Encoding: UTF-8
Language: ja
Country: JP
--></g></svg>