<?xml version="1.0" encoding="UTF-8" standalone="no"?><svg xmlns="http://www.w3.org/2000/svg" xmlns:xlink="http://www.w3.org/1999/xlink" contentScriptType="application/ecmascript" contentStyleType="text/css" height="351px" preserveAspectRatio="none" style="width:192px;height:351px;" version="1.1" viewBox="0 0 192 351" width="192px" zoomAndPan="magnify"><defs/><g><ellipse cx="95.5" cy="20" fill="#000000" rx="10" ry="10" style="stroke: none; stroke-width: 1.0;"/><rect fill="#FEFECE" height="34.1328" rx="12.5" ry="12.5" style="stroke: #A80036; stroke-width: 1.5;" width="136" x="27.5" y="50"/><text fill="#000000" font-family="sans-serif" font-size="12" lengthAdjust="spacingAndGlyphs" textLength="116" x="37.5" y="71.6016">len = strlen(str) + 1</text><rect fill="#FEFECE" height="34.1328" rx="12.5" ry="12.5" style="stroke: #A80036; stroke-width: 1.5;" width="171" x="10" y="104.1328"/><text fill="#000000" font-family="sans-serif" font-size="12" lengthAdjust="spacingAndGlyphs" textLength="151" x="20" y="125.7344">foods[count] = malloc(len)</text><rect fill="#FEFECE" height="34.1328" rx="12.5" ry="12.5" style="stroke: #A80036; stroke-width: 1.5;" width="157" x="17" y="158.2656"/><text fill="#000000" font-family="sans-serif" font-size="12" lengthAdjust="spacingAndGlyphs" textLength="137" x="27" y="179.8672">strcpy(foods[count], str)</text><rect fill="#FEFECE" height="34.1328" rx="12.5" ry="12.5" style="stroke: #A80036; stroke-width: 1.5;" width="131" x="30" y="212.3984"/><text fill="#000000" font-family="sans-serif" font-size="12" lengthAdjust="spacingAndGlyphs" textLength="111" x="40" y="234">calorie[count] = cal</text><rect fill="#FEFECE" height="34.1328" rx="12.5" ry="12.5" style="stroke: #A80036; stroke-width: 1.5;" width="71" x="60" y="266.5313"/><text fill="#000000" font-family="sans-serif" font-size="12" lengthAdjust="spacingAndGlyphs" textLength="51" x="70" y="288.1328">count++</text><ellipse cx="95.5" cy="330.6641" fill="none" rx="10" ry="10" style="stroke: #000000; stroke-width: 1.0;"/><ellipse cx="96" cy="331.1641" fill="#000000" rx="6" ry="6" style="stroke: none; stroke-width: 1.0;"/><line style="stroke: #A80036; stroke-width: 1.5;" x1="95.5" x2="95.5" y1="30" y2="50"/><polygon fill="#A80036" points="91.5,40,95.5,50,99.5,40,95.5,44" style="stroke: #A80036; stroke-width: 1.0;"/><line style="stroke: #A80036; stroke-width: 1.5;" x1="95.5" x2="95.5" y1="84.1328" y2="104.1328"/><polygon fill="#A80036" points="91.5,94.1328,95.5,104.1328,99.5,94.1328,95.5,98.1328" style="stroke: #A80036; stroke-width: 1.0;"/><line style="stroke: #A80036; stroke-width: 1.5;" x1="95.5" x2="95.5" y1="138.2656" y2="158.2656"/><polygon fill="#A80036" points="91.5,148.2656,95.5,158.2656,99.5,148.2656,95.5,152.2656" style="stroke: #A80036; stroke-width: 1.0;"/><line style="stroke: #A80036; stroke-width: 1.5;" x1="95.5" x2="95.5" y1="192.3984" y2="212.3984"/><polygon fill="#A80036" points="91.5,202.3984,95.5,212.3984,99.5,202.3984,95.5,206.3984" style="stroke: #A80036; stroke-width: 1.0;"/><line style="stroke: #A80036; stroke-width: 1.5;" x1="95.5" x2="95.5" y1="246.5313" y2="266.5313"/><polygon fill="#A80036" points="91.5,256.5313,95.5,266.5313,99.5,256.5313,95.5,260.5313" style="stroke: #A80036; stroke-width: 1.0;"/><line style="stroke: #A80036; stroke-width: 1.5;" x1="95.5" x2="95.5" y1="300.6641" y2="320.6641"/><polygon fill="#A80036" points="91.5,310.6641,95.5,320.6641,99.5,310.6641,95.5,314.6641" style="stroke: #A80036; stroke-width: 1.0;"/><!--
@startuml
skinparam shadowing false

start
:len = strlen(str) + 1;
:foods[count] = malloc(len);
:strcpy(foods[count], str);
:calorie[count] = cal;
:count++;
stop
@enduml

PlantUML version 1.2018.08(Sun Jun 24 21:31:00 JST 2018)
(GPL source distribution)
Java Runtime: Java(TM) SE Runtime Environment
JVM: Java HotSpot(TM) 64-Bit Server VM
Java Version: 1.8.0_102-b14
Operating System: Mac OS X
OS Version: 10.11.6
Default Encoding: UTF-8
Language: ja
Country: JP
--></g></svg>