<?xml version="1.0" encoding="UTF-8" standalone="no"?><svg xmlns="http://www.w3.org/2000/svg" xmlns:xlink="http://www.w3.org/1999/xlink" contentScriptType="application/ecmascript" contentStyleType="text/css" height="386px" preserveAspectRatio="none" style="width:447px;height:386px;" version="1.1" viewBox="0 0 447 386" width="447px" zoomAndPan="magnify"><defs/><g><ellipse cx="214.5" cy="20" fill="#000000" rx="10" ry="10" style="stroke: none; stroke-width: 1.0;"/><rect fill="#FEFECE" height="34.1328" rx="12.5" ry="12.5" style="stroke: #A80036; stroke-width: 1.5;" width="188" x="120.5" y="50"/><text fill="#000000" font-family="sans-serif" font-size="12" lengthAdjust="spacingAndGlyphs" textLength="168" x="130.5" y="71.6016">printf("カロリー計算ツール\n")</text><rect fill="#FEFECE" height="48.2656" rx="12.5" ry="12.5" style="stroke: #A80036; stroke-width: 1.5;" width="367" x="31" y="148.1328"/><text fill="#000000" font-family="sans-serif" font-size="12" lengthAdjust="spacingAndGlyphs" textLength="347" x="41" y="169.7344">printf("登録は1を，計算は2を，終了は0を入力してください: ");</text><text fill="#000000" font-family="sans-serif" font-size="12" lengthAdjust="spacingAndGlyphs" textLength="110" x="45" y="183.8672">scanf("%d", &amp;menu)</text><polygon fill="#FEFECE" points="32,216.3984,93,216.3984,105,228.3984,93,240.3984,32,240.3984,20,228.3984,32,216.3984" style="stroke: #A80036; stroke-width: 1.5;"/><text fill="#000000" font-family="sans-serif" font-size="11" lengthAdjust="spacingAndGlyphs" textLength="22" x="66.5" y="251.0332">true</text><text fill="#000000" font-family="sans-serif" font-size="11" lengthAdjust="spacingAndGlyphs" textLength="61" x="32" y="232.5557">menu == 0</text><ellipse cx="62.5" cy="282.5332" fill="none" rx="10" ry="10" style="stroke: #000000; stroke-width: 1.0;"/><ellipse cx="63" cy="283.0332" fill="#000000" rx="6" ry="6" style="stroke: none; stroke-width: 1.0;"/><polygon fill="#FEFECE" points="140.5,216.3984,201.5,216.3984,213.5,228.3984,201.5,240.3984,140.5,240.3984,128.5,228.3984,140.5,216.3984" style="stroke: #A80036; stroke-width: 1.5;"/><text fill="#000000" font-family="sans-serif" font-size="11" lengthAdjust="spacingAndGlyphs" textLength="22" x="175" y="251.0332">true</text><text fill="#000000" font-family="sans-serif" font-size="11" lengthAdjust="spacingAndGlyphs" textLength="61" x="140.5" y="232.5557">menu == 1</text><rect fill="#FEFECE" height="34.1328" rx="12.5" ry="12.5" style="stroke: #A80036; stroke-width: 1.5;" width="92" x="125" y="272.5332"/><text fill="#000000" font-family="sans-serif" font-size="12" lengthAdjust="spacingAndGlyphs" textLength="72" x="135" y="294.1348">regist_food()</text><polygon fill="#FEFECE" points="267.5,216.3984,328.5,216.3984,340.5,228.3984,328.5,240.3984,267.5,240.3984,255.5,228.3984,267.5,216.3984" style="stroke: #A80036; stroke-width: 1.5;"/><text fill="#000000" font-family="sans-serif" font-size="11" lengthAdjust="spacingAndGlyphs" textLength="22" x="302" y="251.0332">true</text><text fill="#000000" font-family="sans-serif" font-size="11" lengthAdjust="spacingAndGlyphs" textLength="61" x="267.5" y="232.5557">menu == 2</text><text fill="#000000" font-family="sans-serif" font-size="11" lengthAdjust="spacingAndGlyphs" textLength="25" x="340.5" y="226.0781">false</text><rect fill="#FEFECE" height="34.1328" rx="12.5" ry="12.5" style="stroke: #A80036; stroke-width: 1.5;" width="122" x="237" y="272.5332"/><text fill="#000000" font-family="sans-serif" font-size="12" lengthAdjust="spacingAndGlyphs" textLength="102" x="247" y="294.1348">calculate_calorie()</text><polygon fill="#FEFECE" points="214.5,104.1328,226.5,116.1328,214.5,128.1328,202.5,116.1328,214.5,104.1328" style="stroke: #A80036; stroke-width: 1.5;"/><line style="stroke: #A80036; stroke-width: 1.5;" x1="214.5" x2="214.5" y1="30" y2="50"/><polygon fill="#A80036" points="210.5,40,214.5,50,218.5,40,214.5,44" style="stroke: #A80036; stroke-width: 1.0;"/><line style="stroke: #A80036; stroke-width: 1.5;" x1="62.5" x2="62.5" y1="240.3984" y2="272.5332"/><polygon fill="#A80036" points="58.5,262.5332,62.5,272.5332,66.5,262.5332,62.5,266.5332" style="stroke: #A80036; stroke-width: 1.0;"/><line style="stroke: #A80036; stroke-width: 1.5;" x1="171" x2="171" y1="240.3984" y2="272.5332"/><polygon fill="#A80036" points="167,262.5332,171,272.5332,175,262.5332,171,266.5332" style="stroke: #A80036; stroke-width: 1.0;"/><line style="stroke: #A80036; stroke-width: 1.5;" x1="171" x2="171" y1="306.666" y2="326.666"/><polygon fill="#A80036" points="167,316.666,171,326.666,175,316.666,171,320.666" style="stroke: #A80036; stroke-width: 1.0;"/><line style="stroke: #A80036; stroke-width: 1.5;" x1="298" x2="298" y1="240.3984" y2="272.5332"/><polygon fill="#A80036" points="294,262.5332,298,272.5332,302,262.5332,298,266.5332" style="stroke: #A80036; stroke-width: 1.0;"/><line style="stroke: #A80036; stroke-width: 1.5;" x1="298" x2="298" y1="306.666" y2="326.666"/><polygon fill="#A80036" points="294,316.666,298,326.666,302,316.666,298,320.666" style="stroke: #A80036; stroke-width: 1.0;"/><line style="stroke: #A80036; stroke-width: 1.5;" x1="105" x2="128.5" y1="228.3984" y2="228.3984"/><polygon fill="#A80036" points="118.5,224.3984,128.5,228.3984,118.5,232.3984,122.5,228.3984" style="stroke: #A80036; stroke-width: 1.0;"/><line style="stroke: #A80036; stroke-width: 1.5;" x1="213.5" x2="255.5" y1="228.3984" y2="228.3984"/><polygon fill="#A80036" points="245.5,224.3984,255.5,228.3984,245.5,232.3984,249.5,228.3984" style="stroke: #A80036; stroke-width: 1.0;"/><line style="stroke: #A80036; stroke-width: 1.5;" x1="214.5" x2="214.5" y1="196.3984" y2="201.3984"/><line style="stroke: #A80036; stroke-width: 1.5;" x1="214.5" x2="62.5" y1="201.3984" y2="201.3984"/><line style="stroke: #A80036; stroke-width: 1.5;" x1="62.5" x2="62.5" y1="201.3984" y2="216.3984"/><polygon fill="#A80036" points="58.5,206.3984,62.5,216.3984,66.5,206.3984,62.5,210.3984" style="stroke: #A80036; stroke-width: 1.0;"/><line style="stroke: #A80036; stroke-width: 1.5;" x1="340.5" x2="394" y1="228.3984" y2="228.3984"/><line style="stroke: #A80036; stroke-width: 1.5;" x1="394" x2="394" y1="228.3984" y2="326.666"/><polygon fill="#A80036" points="390,316.666,394,326.666,398,316.666,394,320.666" style="stroke: #A80036; stroke-width: 1.0;"/><line style="stroke: #A80036; stroke-width: 1.5;" x1="171" x2="394" y1="326.666" y2="326.666"/><line style="stroke: #A80036; stroke-width: 1.5;" x1="214.5" x2="214.5" y1="128.1328" y2="148.1328"/><polygon fill="#A80036" points="210.5,138.1328,214.5,148.1328,218.5,138.1328,214.5,142.1328" style="stroke: #A80036; stroke-width: 1.0;"/><line style="stroke: #A80036; stroke-width: 1.5;" x1="214.5" x2="214.5" y1="326.666" y2="374.666"/><line style="stroke: #A80036; stroke-width: 1.5;" x1="214.5" x2="421" y1="374.666" y2="374.666"/><polygon fill="#A80036" points="417,249.3096,421,239.3096,425,249.3096,421,245.3096" style="stroke: #A80036; stroke-width: 1.5;"/><line style="stroke: #A80036; stroke-width: 1.5;" x1="421" x2="421" y1="116.1328" y2="374.666"/><line style="stroke: #A80036; stroke-width: 1.5;" x1="421" x2="226.5" y1="116.1328" y2="116.1328"/><polygon fill="#A80036" points="236.5,112.1328,226.5,116.1328,236.5,120.1328,232.5,116.1328" style="stroke: #A80036; stroke-width: 1.0;"/><line style="stroke: #A80036; stroke-width: 1.5;" x1="214.5" x2="214.5" y1="84.1328" y2="104.1328"/><polygon fill="#A80036" points="210.5,94.1328,214.5,104.1328,218.5,94.1328,214.5,98.1328" style="stroke: #A80036; stroke-width: 1.0;"/><!--
@startuml
skinparam shadowing false

start
:printf("カロリー計算ツール\\n");
repeat
:printf("登録は1を，計算は2を，終了は0を入力してください: ");\n scanf("%d", &menu);
if (menu == 0) then (true)
stop
elseif (menu == 1) then (true)
:regist_food();
elseif (menu == 2) then (true)
:calculate_calorie();
else (false)
endif
@enduml

PlantUML version 1.2018.08(Sun Jun 24 21:31:00 JST 2018)
(GPL source distribution)
Java Runtime: Java(TM) SE Runtime Environment
JVM: Java HotSpot(TM) 64-Bit Server VM
Java Version: 1.8.0_102-b14
Operating System: Mac OS X
OS Version: 10.11.6
Default Encoding: UTF-8
Language: ja
Country: JP
--></g></svg>