<?xml version="1.0" encoding="UTF-8" standalone="no"?><svg xmlns="http://www.w3.org/2000/svg" xmlns:xlink="http://www.w3.org/1999/xlink" contentScriptType="application/ecmascript" contentStyleType="text/css" height="805px" preserveAspectRatio="none" style="width:339px;height:805px;" version="1.1" viewBox="0 0 339 805" width="339px" zoomAndPan="magnify"><defs/><g><ellipse cx="158.5" cy="20" fill="#000000" rx="10" ry="10" style="stroke: none; stroke-width: 1.0;"/><rect fill="#FEFECE" height="34.1328" rx="12.5" ry="12.5" style="stroke: #A80036; stroke-width: 1.5;" width="83" x="117" y="50"/><text fill="#000000" font-family="sans-serif" font-size="12" lengthAdjust="spacingAndGlyphs" textLength="63" x="127" y="71.6016">total = 0.0</text><rect fill="#FEFECE" height="34.1328" rx="12.5" ry="12.5" style="stroke: #A80036; stroke-width: 1.5;" width="103" x="107" y="104.1328"/><text fill="#000000" font-family="sans-serif" font-size="12" lengthAdjust="spacingAndGlyphs" textLength="83" x="117" y="125.7344">print_foodlist()</text><rect fill="#FEFECE" height="48.2656" rx="12.5" ry="12.5" style="stroke: #A80036; stroke-width: 1.5;" width="197" x="60" y="202.2656"/><text fill="#000000" font-family="sans-serif" font-size="12" lengthAdjust="spacingAndGlyphs" textLength="177" x="70" y="223.8672">printf("食品名（endで計算）: ");</text><text fill="#000000" font-family="sans-serif" font-size="12" lengthAdjust="spacingAndGlyphs" textLength="87" x="70" y="238">scanf("%s", buf)</text><polygon fill="#FEFECE" points="94,270.5313,223,270.5313,235,282.5313,223,294.5313,94,294.5313,82,282.5313,94,270.5313" style="stroke: #A80036; stroke-width: 1.5;"/><text fill="#000000" font-family="sans-serif" font-size="11" lengthAdjust="spacingAndGlyphs" textLength="22" x="162.5" y="305.166">true</text><text fill="#000000" font-family="sans-serif" font-size="11" lengthAdjust="spacingAndGlyphs" textLength="129" x="94" y="286.6885">strcmp(buf, "end") == 0</text><rect fill="#FEFECE" height="48.2656" rx="12.5" ry="12.5" style="stroke: #A80036; stroke-width: 1.5;" width="127" x="95" y="358.0088"/><text fill="#000000" font-family="sans-serif" font-size="12" lengthAdjust="spacingAndGlyphs" textLength="107" x="105" y="379.6104">printf("グラム数: ");</text><text fill="#000000" font-family="sans-serif" font-size="12" lengthAdjust="spacingAndGlyphs" textLength="107" x="105" y="393.7432">scanf("%lf", &amp;gram)</text><rect fill="#FEFECE" height="34.1328" rx="12.5" ry="12.5" style="stroke: #A80036; stroke-width: 1.5;" width="173" x="72" y="431.1416"/><text fill="#000000" font-family="sans-serif" font-size="12" lengthAdjust="spacingAndGlyphs" textLength="153" x="82" y="452.7432">index = search_index(buf)</text><rect fill="#FEFECE" height="34.1328" rx="12.5" ry="12.5" style="stroke: #A80036; stroke-width: 1.5;" width="241" x="38" y="533.752"/><text fill="#000000" font-family="sans-serif" font-size="12" lengthAdjust="spacingAndGlyphs" textLength="221" x="48" y="555.3535">total += calorie[index] * (gram / 100)</text><polygon fill="#FEFECE" points="120.5,485.2744,196.5,485.2744,208.5,497.2744,196.5,509.2744,120.5,509.2744,108.5,497.2744,120.5,485.2744" style="stroke: #A80036; stroke-width: 1.5;"/><text fill="#000000" font-family="sans-serif" font-size="11" lengthAdjust="spacingAndGlyphs" textLength="22" x="162.5" y="519.9092">true</text><text fill="#000000" font-family="sans-serif" font-size="11" lengthAdjust="spacingAndGlyphs" textLength="76" x="120.5" y="501.4316">index &lt; count</text><polygon fill="#FEFECE" points="158.5,587.8848,170.5,599.8848,158.5,611.8848,146.5,599.8848,158.5,587.8848" style="stroke: #A80036; stroke-width: 1.5;"/><polygon fill="#FEFECE" points="158.5,158.2656,170.5,170.2656,158.5,182.2656,146.5,170.2656,158.5,158.2656" style="stroke: #A80036; stroke-width: 1.5;"/><polygon fill="#FEFECE" points="158.5,631.8848,158.5,631.8848,170.5,643.8848,158.5,655.8848,158.5,655.8848,146.5,643.8848,158.5,631.8848" style="stroke: #A80036; stroke-width: 1.5;"/><polygon fill="#FEFECE" points="158.5,675.8848,170.5,687.8848,158.5,699.8848,146.5,687.8848,158.5,675.8848" style="stroke: #A80036; stroke-width: 1.5;"/><rect fill="#FEFECE" height="34.1328" rx="12.5" ry="12.5" style="stroke: #A80036; stroke-width: 1.5;" width="297" x="10" y="719.8848"/><text fill="#000000" font-family="sans-serif" font-size="12" lengthAdjust="spacingAndGlyphs" textLength="277" x="20" y="741.4863">printf("総カロリーは %6.2f kcalです．\n\n", total)</text><ellipse cx="158.5" cy="784.0176" fill="none" rx="10" ry="10" style="stroke: #000000; stroke-width: 1.0;"/><ellipse cx="159" cy="784.5176" fill="#000000" rx="6" ry="6" style="stroke: none; stroke-width: 1.0;"/><line style="stroke: #A80036; stroke-width: 1.5;" x1="158.5" x2="158.5" y1="30" y2="50"/><polygon fill="#A80036" points="154.5,40,158.5,50,162.5,40,158.5,44" style="stroke: #A80036; stroke-width: 1.0;"/><line style="stroke: #A80036; stroke-width: 1.5;" x1="158.5" x2="158.5" y1="84.1328" y2="104.1328"/><polygon fill="#A80036" points="154.5,94.1328,158.5,104.1328,162.5,94.1328,158.5,98.1328" style="stroke: #A80036; stroke-width: 1.0;"/><line style="stroke: #A80036; stroke-width: 1.5;" x1="158.5" x2="158.5" y1="294.5313" y2="319.0088"/><line style="stroke: #A80036; stroke-width: 1.5;" x1="158.5" x2="18" y1="319.0088" y2="319.0088"/><line style="stroke: #A80036; stroke-width: 1.5;" x1="18" x2="18" y1="319.0088" y2="687.8848"/><line style="stroke: #A80036; stroke-width: 1.5;" x1="18" x2="146.5" y1="687.8848" y2="687.8848"/><polygon fill="#A80036" points="136.5,683.8848,146.5,687.8848,136.5,691.8848,140.5,687.8848" style="stroke: #A80036; stroke-width: 1.0;"/><line style="stroke: #A80036; stroke-width: 1.5;" x1="235" x2="247" y1="282.5313" y2="282.5313"/><polygon fill="#A80036" points="243,306.0088,247,316.0088,251,306.0088,247,310.0088" style="stroke: #A80036; stroke-width: 1.5;"/><line style="stroke: #A80036; stroke-width: 1.5;" x1="247" x2="247" y1="282.5313" y2="338.0088"/><line style="stroke: #A80036; stroke-width: 1.5;" x1="247" x2="158.5" y1="338.0088" y2="338.0088"/><line style="stroke: #A80036; stroke-width: 1.5;" x1="158.5" x2="158.5" y1="338.0088" y2="358.0088"/><polygon fill="#A80036" points="154.5,348.0088,158.5,358.0088,162.5,348.0088,158.5,352.0088" style="stroke: #A80036; stroke-width: 1.0;"/><line style="stroke: #A80036; stroke-width: 1.5;" x1="158.5" x2="158.5" y1="250.5313" y2="270.5313"/><polygon fill="#A80036" points="154.5,260.5313,158.5,270.5313,162.5,260.5313,158.5,264.5313" style="stroke: #A80036; stroke-width: 1.0;"/><line style="stroke: #A80036; stroke-width: 1.5;" x1="158.5" x2="158.5" y1="406.2744" y2="431.1416"/><polygon fill="#A80036" points="154.5,421.1416,158.5,431.1416,162.5,421.1416,158.5,425.1416" style="stroke: #A80036; stroke-width: 1.0;"/><line style="stroke: #A80036; stroke-width: 1.5;" x1="158.5" x2="158.5" y1="509.2744" y2="533.752"/><polygon fill="#A80036" points="154.5,523.752,158.5,533.752,162.5,523.752,158.5,527.752" style="stroke: #A80036; stroke-width: 1.0;"/><line style="stroke: #A80036; stroke-width: 1.5;" x1="208.5" x2="289" y1="497.2744" y2="497.2744"/><polygon fill="#A80036" points="285,540.8184,289,550.8184,293,540.8184,289,544.8184" style="stroke: #A80036; stroke-width: 1.5;"/><line style="stroke: #A80036; stroke-width: 1.5;" x1="289" x2="289" y1="497.2744" y2="599.8848"/><line style="stroke: #A80036; stroke-width: 1.5;" x1="289" x2="170.5" y1="599.8848" y2="599.8848"/><polygon fill="#A80036" points="180.5,595.8848,170.5,599.8848,180.5,603.8848,176.5,599.8848" style="stroke: #A80036; stroke-width: 1.0;"/><line style="stroke: #A80036; stroke-width: 1.5;" x1="158.5" x2="158.5" y1="567.8848" y2="587.8848"/><polygon fill="#A80036" points="154.5,577.8848,158.5,587.8848,162.5,577.8848,158.5,581.8848" style="stroke: #A80036; stroke-width: 1.0;"/><line style="stroke: #A80036; stroke-width: 1.5;" x1="158.5" x2="158.5" y1="465.2744" y2="485.2744"/><polygon fill="#A80036" points="154.5,475.2744,158.5,485.2744,162.5,475.2744,158.5,479.2744" style="stroke: #A80036; stroke-width: 1.0;"/><line style="stroke: #A80036; stroke-width: 1.5;" x1="158.5" x2="158.5" y1="182.2656" y2="202.2656"/><polygon fill="#A80036" points="154.5,192.2656,158.5,202.2656,162.5,192.2656,158.5,196.2656" style="stroke: #A80036; stroke-width: 1.0;"/><line style="stroke: #A80036; stroke-width: 1.5;" x1="170.5" x2="313" y1="643.8848" y2="643.8848"/><polygon fill="#A80036" points="309,411.1416,313,401.1416,317,411.1416,313,407.1416" style="stroke: #A80036; stroke-width: 1.5;"/><line style="stroke: #A80036; stroke-width: 1.5;" x1="313" x2="313" y1="170.2656" y2="643.8848"/><line style="stroke: #A80036; stroke-width: 1.5;" x1="313" x2="170.5" y1="170.2656" y2="170.2656"/><polygon fill="#A80036" points="180.5,166.2656,170.5,170.2656,180.5,174.2656,176.5,170.2656" style="stroke: #A80036; stroke-width: 1.0;"/><line style="stroke: #A80036; stroke-width: 1.5;" x1="158.5" x2="158.5" y1="611.8848" y2="631.8848"/><polygon fill="#A80036" points="154.5,621.8848,158.5,631.8848,162.5,621.8848,158.5,625.8848" style="stroke: #A80036; stroke-width: 1.0;"/><line style="stroke: #A80036; stroke-width: 1.5;" x1="158.5" x2="158.5" y1="655.8848" y2="675.8848"/><polygon fill="#A80036" points="154.5,665.8848,158.5,675.8848,162.5,665.8848,158.5,669.8848" style="stroke: #A80036; stroke-width: 1.0;"/><line style="stroke: #A80036; stroke-width: 1.5;" x1="158.5" x2="158.5" y1="138.2656" y2="158.2656"/><polygon fill="#A80036" points="154.5,148.2656,158.5,158.2656,162.5,148.2656,158.5,152.2656" style="stroke: #A80036; stroke-width: 1.0;"/><line style="stroke: #A80036; stroke-width: 1.5;" x1="158.5" x2="158.5" y1="699.8848" y2="719.8848"/><polygon fill="#A80036" points="154.5,709.8848,158.5,719.8848,162.5,709.8848,158.5,713.8848" style="stroke: #A80036; stroke-width: 1.0;"/><line style="stroke: #A80036; stroke-width: 1.5;" x1="158.5" x2="158.5" y1="754.0176" y2="774.0176"/><polygon fill="#A80036" points="154.5,764.0176,158.5,774.0176,162.5,764.0176,158.5,768.0176" style="stroke: #A80036; stroke-width: 1.0;"/><!--
@startuml
skinparam shadowing false

start
:total = 0.0;
:print_foodlist();
repeat
:printf("食品名（endで計算）: ");\nscanf("%s", buf);
if (strcmp(buf, "end") == 0) then (true)
break
endif
:printf("グラム数: ");\nscanf("%lf", &gram);
:index = search_index(buf);
if (index < count) then (true)
:total += calorie[index] * (gram / 100);
endif
repeatwhile
:printf("総カロリーは %6.2f kcalです．\\n\\n", total);
stop
@enduml

PlantUML version 1.2018.08(Sun Jun 24 21:31:00 JST 2018)
(GPL source distribution)
Java Runtime: Java(TM) SE Runtime Environment
JVM: Java HotSpot(TM) 64-Bit Server VM
Java Version: 1.8.0_102-b14
Operating System: Mac OS X
OS Version: 10.11.6
Default Encoding: UTF-8
Language: ja
Country: JP
--></g></svg>