<?xml version="1.0" encoding="UTF-8" standalone="no"?>
<!DOCTYPE svg PUBLIC "-//W3C//DTD SVG 1.1//EN"
 "http://www.w3.org/Graphics/SVG/1.1/DTD/svg11.dtd">
<!-- Generated by graphviz version 2.38.0 (20140413.2041)
 -->
<!-- Title: G Pages: 1 -->
<svg width="760pt" height="180pt"
 viewBox="0.00 0.00 759.75 180.43" xmlns="http://www.w3.org/2000/svg" xmlns:xlink="http://www.w3.org/1999/xlink">
<g id="graph0" class="graph" transform="scale(1 1) rotate(0) translate(4 176.429)">
<title>G</title>
<polygon fill="white" stroke="none" points="-4,4 -4,-176.429 755.747,-176.429 755.747,4 -4,4"/>
<!-- User -->
<g id="node1" class="node"><title>User</title>
<polygon fill="none" stroke="black" points="42.6541,-102.866 -0.219533,-102.866 -0.219533,-59.9923 42.6541,-59.9923 42.6541,-102.866"/>
<text text-anchor="middle" x="21.2173" y="-77.2292" font-family="Times,serif" font-size="14.00">User</text>
</g>
<!-- regist_food -->
<g id="node2" class="node"><title>regist_food</title>
<ellipse fill="none" stroke="black" cx="256.5" cy="-100.429" rx="50.2723" ry="18"/>
<text text-anchor="middle" x="256.5" y="-96.2292" font-family="Times,serif" font-size="14.00">regist_food</text>
</g>
<!-- User&#45;&gt;regist_food -->
<g id="edge1" class="edge"><title>User&#45;&gt;regist_food</title>
<path fill="none" stroke="black" d="M42.5115,-83.082C76.6313,-85.861 146.701,-91.5679 197.167,-95.6781"/>
<polygon fill="black" stroke="black" points="197.049,-99.18 207.3,-96.5034 197.617,-92.2031 197.049,-99.18"/>
<text text-anchor="middle" x="114.466" y="-95.2292" font-family="Times,serif" font-size="14.00">food_name, calorie</text>
</g>
<!-- calculate_calorie -->
<g id="node3" class="node"><title>calculate_calorie</title>
<ellipse fill="none" stroke="black" cx="256.5" cy="-26.4292" rx="70.0063" ry="18"/>
<text text-anchor="middle" x="256.5" y="-22.2292" font-family="Times,serif" font-size="14.00">calculate_calorie</text>
</g>
<!-- User&#45;&gt;calculate_calorie -->
<g id="edge5" class="edge"><title>User&#45;&gt;calculate_calorie</title>
<path fill="none" stroke="black" d="M42.6184,-72.6746C48.316,-70.4354 54.5574,-68.171 60.4346,-66.4292 84.1344,-59.4049 142.227,-47.7461 188.892,-38.8227"/>
<polygon fill="black" stroke="black" points="189.793,-42.2142 198.962,-36.9055 188.484,-35.3377 189.793,-42.2142"/>
<text text-anchor="middle" x="114.466" y="-69.2292" font-family="Times,serif" font-size="14.00">food_name, gram</text>
</g>
<!-- add_food -->
<g id="node4" class="node"><title>add_food</title>
<ellipse fill="none" stroke="black" cx="532.008" cy="-100.429" rx="43.5146" ry="18"/>
<text text-anchor="middle" x="532.008" y="-96.2292" font-family="Times,serif" font-size="14.00">add_food</text>
</g>
<!-- regist_food&#45;&gt;add_food -->
<g id="edge2" class="edge"><title>regist_food&#45;&gt;add_food</title>
<path fill="none" stroke="black" d="M307.03,-100.429C355.32,-100.429 428.512,-100.429 477.966,-100.429"/>
<polygon fill="black" stroke="black" points="478.141,-103.929 488.141,-100.429 478.141,-96.9293 478.141,-103.929"/>
<text text-anchor="middle" x="400.876" y="-103.229" font-family="Times,serif" font-size="14.00">food_name, calorie</text>
</g>
<!-- calculate_calorie&#45;&gt;User -->
<g id="edge6" class="edge"><title>calculate_calorie&#45;&gt;User</title>
<path fill="none" stroke="black" d="M207.155,-13.6286C165.71,-5.41261 105.704,-0.278194 60.4346,-24.4292 49.54,-30.2413 41.2028,-40.6898 35.138,-51.0679"/>
<polygon fill="black" stroke="black" points="31.9679,-49.5756 30.3861,-60.0516 38.1556,-52.8485 31.9679,-49.5756"/>
<text text-anchor="middle" x="114.466" y="-27.2292" font-family="Times,serif" font-size="14.00">total calorie</text>
</g>
<!-- search_index -->
<g id="node6" class="node"><title>search_index</title>
<ellipse fill="none" stroke="black" cx="532.008" cy="-44.4292" rx="56.5201" ry="18"/>
<text text-anchor="middle" x="532.008" y="-40.2292" font-family="Times,serif" font-size="14.00">search_index</text>
</g>
<!-- calculate_calorie&#45;&gt;search_index -->
<g id="edge8" class="edge"><title>calculate_calorie&#45;&gt;search_index</title>
<path fill="none" stroke="black" d="M312.559,-37.2435C323.123,-38.943 334.126,-40.457 344.503,-41.4292 384.413,-45.1679 429.332,-45.9925 465.085,-45.847"/>
<polygon fill="black" stroke="black" points="465.415,-49.3449 475.391,-45.7774 465.368,-42.3451 465.415,-49.3449"/>
<text text-anchor="middle" x="400.876" y="-48.2292" font-family="Times,serif" font-size="14.00">food_name</text>
</g>
<!-- food -->
<g id="node7" class="node"><title>food</title>
<polyline fill="none" stroke="black" points="704.747,-108.429 735.747,-108.429 "/>
<polyline fill="none" stroke="black" points="735.747,-128.429 704.747,-128.429 "/>
<text text-anchor="start" x="707.416" y="-114.229" font-family="Times,serif" font-size="14.00">food</text>
</g>
<!-- add_food&#45;&gt;food -->
<g id="edge3" class="edge"><title>add_food&#45;&gt;food</title>
<path fill="none" stroke="black" d="M574.692,-104.469C607.03,-107.603 651.411,-111.904 682.334,-114.9"/>
<polygon fill="black" stroke="black" points="682.378,-118.421 692.669,-115.902 683.053,-111.454 682.378,-118.421"/>
<text text-anchor="middle" x="638.257" y="-116.229" font-family="Times,serif" font-size="14.00">food_name</text>
</g>
<!-- calorie -->
<g id="node8" class="node"><title>calorie</title>
<polyline fill="none" stroke="black" points="697.747,-19.4292 741.747,-19.4292 "/>
<polyline fill="none" stroke="black" points="741.747,-39.4292 697.747,-39.4292 "/>
<text text-anchor="start" x="700.706" y="-25.2292" font-family="Times,serif" font-size="14.00">calorie</text>
</g>
<!-- add_food&#45;&gt;calorie -->
<g id="edge4" class="edge"><title>add_food&#45;&gt;calorie</title>
<path fill="none" stroke="black" d="M570.502,-91.9697C598.517,-84.9898 637.392,-73.8915 669.747,-59.4292 674.181,-57.4474 678.7,-55.1343 683.113,-52.6876"/>
<polygon fill="black" stroke="black" points="685.075,-55.5956 691.958,-47.5411 681.554,-49.5452 685.075,-55.5956"/>
<text text-anchor="middle" x="638.257" y="-84.2292" font-family="Times,serif" font-size="14.00">calorie</text>
</g>
<!-- print_foodlist -->
<g id="node5" class="node"><title>print_foodlist</title>
<ellipse fill="none" stroke="black" cx="256.5" cy="-154.429" rx="58.0083" ry="18"/>
<text text-anchor="middle" x="256.5" y="-150.229" font-family="Times,serif" font-size="14.00">print_foodlist</text>
</g>
<!-- print_foodlist&#45;&gt;User -->
<g id="edge7" class="edge"><title>print_foodlist&#45;&gt;User</title>
<path fill="none" stroke="black" d="M201.343,-148.52C161.036,-142.647 105.445,-131.372 60.4346,-110.429 57.2417,-108.944 54.061,-107.158 50.9755,-105.211"/>
<polygon fill="black" stroke="black" points="52.816,-102.228 42.6012,-99.416 48.8327,-107.985 52.816,-102.228"/>
<text text-anchor="middle" x="114.466" y="-144.229" font-family="Times,serif" font-size="14.00">food_names</text>
</g>
<!-- search_index&#45;&gt;calculate_calorie -->
<g id="edge10" class="edge"><title>search_index&#45;&gt;calculate_calorie</title>
<path fill="none" stroke="black" d="M492.778,-31.3702C481.475,-28.1046 468.985,-25.0673 457.249,-23.4292 416.432,-17.7319 370.47,-17.97 332.934,-19.861"/>
<polygon fill="black" stroke="black" points="332.372,-16.3866 322.581,-20.4346 332.76,-23.3759 332.372,-16.3866"/>
<text text-anchor="middle" x="400.876" y="-26.2292" font-family="Times,serif" font-size="14.00">index of food_name</text>
</g>
<!-- food&#45;&gt;print_foodlist -->
<g id="edge12" class="edge"><title>food&#45;&gt;print_foodlist</title>
<path fill="none" stroke="black" d="M692.511,-126.443C685.205,-128.385 677.222,-130.242 669.747,-131.429 549.411,-150.544 407.128,-154.415 325.096,-154.858"/>
<polygon fill="black" stroke="black" points="324.894,-151.359 314.908,-154.897 324.921,-158.359 324.894,-151.359"/>
<text text-anchor="middle" x="532.008" y="-153.229" font-family="Times,serif" font-size="14.00">food_name</text>
</g>
<!-- food&#45;&gt;search_index -->
<g id="edge11" class="edge"><title>food&#45;&gt;search_index</title>
<path fill="none" stroke="black" d="M709.87,-100.393C699.288,-79.7391 681.554,-47.9103 669.747,-41.4292 644.553,-27.599 612.616,-27.5173 585.944,-31.2751"/>
<polygon fill="black" stroke="black" points="585.317,-27.8309 576.004,-32.8826 586.435,-34.7411 585.317,-27.8309"/>
<text text-anchor="middle" x="638.257" y="-44.2292" font-family="Times,serif" font-size="14.00">food_name</text>
</g>
<!-- calorie&#45;&gt;calculate_calorie -->
<g id="edge9" class="edge"><title>calorie&#45;&gt;calculate_calorie</title>
<path fill="none" stroke="black" d="M687.491,-21.3707C661.324,-15.0618 622.89,-6.80846 588.768,-3.42916 497.775,5.58228 392.374,-5.40129 325.347,-15.0627"/>
<polygon fill="black" stroke="black" points="324.718,-11.6174 315.335,-16.5372 325.738,-18.5427 324.718,-11.6174"/>
<text text-anchor="middle" x="532.008" y="-6.22916" font-family="Times,serif" font-size="14.00">calorie</text>
</g>
</g>
</svg>
