<?xml version="1.0" encoding="UTF-8" standalone="no"?>
<svg
   xmlns:dc="http://purl.org/dc/elements/1.1/"
   xmlns:cc="http://creativecommons.org/ns#"
   xmlns:rdf="http://www.w3.org/1999/02/22-rdf-syntax-ns#"
   xmlns:svg="http://www.w3.org/2000/svg"
   xmlns="http://www.w3.org/2000/svg"
   viewBox="0 0 1021.875 508.125"
   height="508.125"
   width="1021.875"
   xml:space="preserve"
   version="1.1"
   id="svg2"><metadata
     id="metadata8"><rdf:RDF><cc:Work
         rdf:about=""><dc:format>image/svg+xml</dc:format><dc:type
           rdf:resource="http://purl.org/dc/dcmitype/StillImage" /></cc:Work></rdf:RDF></metadata><defs
     id="defs6"><clipPath
       id="clipPath18"
       clipPathUnits="userSpaceOnUse"><path
         id="path20"
         d="m 0,0 817.5,0 0,406.5 L 0,406.5 0,0 Z" /></clipPath></defs><g
     transform="matrix(1.25,0,0,-1.25,0,508.125)"
     id="g10"><g
       id="g12" /><g
       id="g14"><g
         clip-path="url(#clipPath18)"
         id="g16"><path
           id="path22"
           style="fill:#ffffff;fill-opacity:1;fill-rule:nonzero;stroke:none"
           d="m 3,370 216,0 0,-109.5 -216,0 0,109.5 z" /><g
           transform="matrix(1.5,0,0,-1.5,-58.5,704.5)"
           id="g24"><path
             id="path26"
             style="fill:none;stroke:#000000;stroke-width:1;stroke-linecap:round;stroke-linejoin:round;stroke-miterlimit:10;stroke-dasharray:none;stroke-opacity:1"
             d="m 41,223 144,0 0,73 -144,0 0,-73 z" /></g><g
           transform="matrix(1.5,0,0,-1.5,111,315.75)"
           id="g28"><text
             id="text30"
             style="font-variant:normal;font-size:12px;font-family:HiraginoSans;-inkscape-font-specification:HiraginoSans-W3;writing-mode:lr-tb;fill:#000000;fill-opacity:1;fill-rule:nonzero;stroke:none"
             transform="translate(-35.64,-7.000012)"><tspan
               id="tspan32"
               y="0"
               x="0 12 24 35.639999 47.639999 59.279999">エンティティ</tspan></text>
</g><g
           transform="matrix(1.5,0,0,-1.5,111,315.75)"
           id="g34"><text
             id="text36"
             style="font-variant:normal;font-size:12px;font-family:HiraginoSans;-inkscape-font-specification:HiraginoSans-W3;writing-mode:lr-tb;fill:#000000;fill-opacity:1;fill-rule:nonzero;stroke:none"
             transform="translate(-48,11)"><tspan
               id="tspan38"
               y="0"
               x="0 12 24 36 48 60 72 84">（データの発生）</tspan></text>
</g><path
           id="path40"
           style="fill:#ffffff;fill-opacity:1;fill-rule:nonzero;stroke:none"
           d="m 487.2986,377.2986 c 34.2686,-34.2685 34.2686,-89.8287 0,-124.0972 -34.2685,-34.2686 -89.8287,-34.2686 -124.0972,0 -34.2686,34.2685 -34.2686,89.8287 0,124.0972 34.2685,34.2686 89.8287,34.2686 124.0972,0" /><g
           transform="matrix(1.5,0,0,-1.5,-58.5,704.5)"
           id="g42"><path
             id="path44"
             style="fill:none;stroke:#000000;stroke-width:1;stroke-linecap:round;stroke-linejoin:round;stroke-miterlimit:10;stroke-dasharray:none;stroke-opacity:1"
             d="m 363.8657,218.1343 c 22.8458,22.8457 22.8458,59.8857 0,82.7314 -22.8457,22.8458 -59.8857,22.8458 -82.7314,0 -22.8458,-22.8457 -22.8458,-59.8857 0,-82.7314 22.8457,-22.8458 59.8857,-22.8458 82.7314,0" /></g><g
           transform="matrix(1.5,0,0,-1.5,425.25,315.75)"
           id="g46"><text
             id="text48"
             style="font-variant:normal;font-size:12px;font-family:HiraginoSans;-inkscape-font-specification:HiraginoSans-W3;writing-mode:lr-tb;fill:#000000;fill-opacity:1;fill-rule:nonzero;stroke:none"
             transform="translate(-36,1.999994)"><tspan
               id="tspan50"
               y="0"
               x="0 12 24 36 48 60">（プロセス）</tspan></text>
</g><path
           id="path52"
           style="fill:#ffffff;fill-opacity:1;fill-rule:nonzero;stroke:none"
           d="m 639,347.5 175.5,0 0,-64.5 -175.5,0 0,64.5 z" /><g
           transform="matrix(1.5,0,0,-1.5,-58.5,704.5)"
           id="g54"><path
             id="path56"
             style="fill:none;stroke:#000000;stroke-width:1;stroke-linecap:round;stroke-linejoin:round;stroke-miterlimit:10;stroke-dasharray:none;stroke-opacity:1"
             d="m 465,238 117,0 m 0,43 -117,0" /></g><g
           transform="matrix(1.5,0,0,-1.5,726.75,315.75)"
           id="g58"><text
             id="text60"
             style="font-variant:normal;font-size:12px;font-family:HiraginoSans;-inkscape-font-specification:HiraginoSans-W3;writing-mode:lr-tb;fill:#000000;fill-opacity:1;fill-rule:nonzero;stroke:none"
             transform="translate(-36,1.999994)"><tspan
               id="tspan62"
               y="0"
               x="0 12 24 36 48 60">データの保管</tspan></text>
</g><path
           id="path64"
           style="fill:#ffffff;fill-opacity:1;fill-rule:nonzero;stroke:none"
           d="m 3,196.75 216,0 0,-109.5 -216,0 0,109.5 z" /><g
           transform="matrix(1.5,0,0,-1.5,-58.5,704.5)"
           id="g66"><path
             id="path68"
             style="fill:none;stroke:#000000;stroke-width:1;stroke-linecap:round;stroke-linejoin:round;stroke-miterlimit:10;stroke-dasharray:none;stroke-opacity:1"
             d="m 41,338.5 144,0 0,73 -144,0 0,-73 z" /></g><g
           transform="matrix(1.5,0,0,-1.5,111,142.5)"
           id="g70"><text
             id="text72"
             style="font-variant:normal;font-size:12px;font-family:HiraginoSans;-inkscape-font-specification:HiraginoSans-W3;writing-mode:lr-tb;fill:#000000;fill-opacity:1;fill-rule:nonzero;stroke:none"
             transform="translate(-35.64,-7.000012)"><tspan
               id="tspan74"
               y="0"
               x="0 12 24 35.639999 47.639999 59.279999">エンティティ</tspan></text>
</g><g
           transform="matrix(1.5,0,0,-1.5,111,142.5)"
           id="g76"><text
             id="text78"
             style="font-variant:normal;font-size:12px;font-family:HiraginoSans;-inkscape-font-specification:HiraginoSans-W3;writing-mode:lr-tb;fill:#000000;fill-opacity:1;fill-rule:nonzero;stroke:none"
             transform="translate(-54,11)"><tspan
               id="tspan80"
               y="0"
               x="0 12 24 36 48 60 72 84 96">（データの行き先）</tspan></text>
</g><g
           transform="matrix(1.5,0,0,-1.5,-58.5,704.5)"
           id="g82"><path
             id="path84"
             style="fill:none;stroke:#000000;stroke-width:1;stroke-linecap:round;stroke-linejoin:round;stroke-miterlimit:10;stroke-dasharray:none;stroke-opacity:1"
             d="m 185.5,259.5841 68.1002,0.0789" /></g><path
           id="path86"
           style="fill:#000000;fill-opacity:1;fill-rule:nonzero;stroke:none"
           d="m 333.9003,314.9916 -11.9947,4.5139 -0.0105,-9 12.0052,4.4861 z" /><g
           transform="matrix(1.5,0,0,-1.5,-58.5,704.5)"
           id="g88"><path
             id="path90"
             style="fill:none;stroke:#000000;stroke-width:1;stroke-linecap:butt;stroke-linejoin:miter;stroke-miterlimit:10;stroke-dasharray:none;stroke-opacity:1"
             d="m 261.6002,259.6723 -7.9965,-3.0093 -0.007,6 8.0034,-2.9907 z" /></g><g
           transform="matrix(1.5,0,0,-1.5,-58.5,704.5)"
           id="g92"><path
             id="path94"
             style="fill:none;stroke:#000000;stroke-width:1;stroke-linecap:round;stroke-linejoin:round;stroke-miterlimit:10;stroke-dasharray:none;stroke-opacity:1"
             d="M 264.2731,399.953 195.2628,388.6379" /></g><path
           id="path96"
           style="fill:#000000;fill-opacity:1;fill-rule:nonzero;stroke:none"
           d="m 222.5523,123.4848 11.1138,-6.3823 1.4562,8.8814 -12.57,-2.4991 z" /><g
           transform="matrix(1.5,0,0,-1.5,-58.5,704.5)"
           id="g98"><path
             id="path100"
             style="fill:none;stroke:#000000;stroke-width:1;stroke-linecap:butt;stroke-linejoin:miter;stroke-miterlimit:10;stroke-dasharray:none;stroke-opacity:1"
             d="m 187.3682,387.3435 7.4092,4.2548 0.9708,-5.9209 -8.38,1.6661 z" /></g><g
           transform="matrix(1.5,0,0,-1.5,278.25,338.25)"
           id="g102"><text
             id="text104"
             style="font-variant:normal;font-size:12px;font-family:HiraginoSans;-inkscape-font-specification:HiraginoSans-W3;writing-mode:lr-tb;fill:#000000;fill-opacity:1;fill-rule:nonzero;stroke:none"
             transform="translate(-24,1.999994)"><tspan
               id="tspan106"
               y="0"
               x="0 12 24 36">データ名</tspan></text>
</g><g
           transform="matrix(1.5,0,0,-1.5,572.25,338.25)"
           id="g108"><text
             id="text110"
             style="font-variant:normal;font-size:12px;font-family:HiraginoSans;-inkscape-font-specification:HiraginoSans-W3;writing-mode:lr-tb;fill:#000000;fill-opacity:1;fill-rule:nonzero;stroke:none"
             transform="translate(-24,1.999994)"><tspan
               id="tspan112"
               y="0"
               x="0 12 24 36">データ名</tspan></text>
</g><g
           transform="matrix(1.5,0,0,-1.5,-58.5,704.5)"
           id="g114"><path
             id="path116"
             style="fill:none;stroke:#000000;stroke-width:1;stroke-linecap:round;stroke-linejoin:round;stroke-miterlimit:10;stroke-dasharray:none;stroke-opacity:1"
             d="m 381.5,259.5041 73.1001,0.005" /></g><path
           id="path118"
           style="fill:#000000;fill-opacity:1;fill-rule:nonzero;stroke:none"
           d="m 635.4001,315.2354 -11.9996,4.5008 -7e-4,-9 12.0003,4.4992 z" /><g
           transform="matrix(1.5,0,0,-1.5,-58.5,704.5)"
           id="g120"><path
             id="path122"
             style="fill:none;stroke:#000000;stroke-width:1;stroke-linecap:butt;stroke-linejoin:miter;stroke-miterlimit:10;stroke-dasharray:none;stroke-opacity:1"
             d="m 462.6001,259.5098 -7.9998,-3.0006 -4e-4,6 8.0002,-2.9994 z" /></g><g
           transform="matrix(1.5,0,0,-1.5,-58.5,704.5)"
           id="g124"><path
             id="path126"
             style="fill:none;stroke:#000000;stroke-width:1;stroke-linecap:round;stroke-linejoin:round;stroke-miterlimit:10;stroke-dasharray:none;stroke-opacity:1"
             d="M 494.6513,281.2988 377.7978,368.3853" /></g><path
           id="path128"
           style="fill:#000000;fill-opacity:1;fill-rule:nonzero;stroke:none"
           d="m 498.5749,144.7513 12.3109,3.5626 -5.3781,7.2163 -6.9328,-10.7789 z" /><g
           transform="matrix(1.5,0,0,-1.5,-58.5,704.5)"
           id="g130"><path
             id="path132"
             style="fill:none;stroke:#000000;stroke-width:1;stroke-linecap:butt;stroke-linejoin:miter;stroke-miterlimit:10;stroke-dasharray:none;stroke-opacity:1"
             d="m 371.3833,373.1658 8.2072,-2.375 -3.5854,-4.811 -4.6218,7.186 z" /></g><g
           transform="matrix(1.5,0,0,-1.5,289.5,149.25)"
           id="g134"><text
             id="text136"
             style="font-variant:normal;font-size:12px;font-family:HiraginoSans;-inkscape-font-specification:HiraginoSans-W3;writing-mode:lr-tb;fill:#000000;fill-opacity:1;fill-rule:nonzero;stroke:none"
             transform="translate(-24,1.999994)"><tspan
               id="tspan138"
               y="0"
               x="0 12 24 36">データ名</tspan></text>
</g><g
           transform="matrix(1.5,0,0,-1.5,612,176.4153)"
           id="g140"><text
             id="text142"
             style="font-variant:normal;font-size:12px;font-family:HiraginoSans;-inkscape-font-specification:HiraginoSans-W3;writing-mode:lr-tb;fill:#000000;fill-opacity:1;fill-rule:nonzero;stroke:none"
             transform="translate(-24,1.999994)"><tspan
               id="tspan144"
               y="0"
               x="0 12 24 36">データ名</tspan></text>
</g><path
           id="path146"
           style="fill:#ffffff;fill-opacity:1;fill-rule:nonzero;stroke:none"
           d="m 487.2986,152.2986 c 34.2686,-34.2685 34.2686,-89.82867 0,-124.09715 -34.2685,-34.268658 -89.8287,-34.268658 -124.0971,0 -34.2687,34.26848 -34.2687,89.82865 0,124.09715 34.2684,34.2686 89.8286,34.2686 124.0971,0" /><g
           transform="matrix(1.5,0,0,-1.5,-58.5,704.5)"
           id="g148"><path
             id="path150"
             style="fill:none;stroke:#000000;stroke-width:1;stroke-linecap:round;stroke-linejoin:round;stroke-miterlimit:10;stroke-dasharray:none;stroke-opacity:1"
             d="m 363.8657,368.1343 c 22.8458,22.8457 22.8458,59.8857 0,82.7314 -22.8456,22.8458 -59.8857,22.8458 -82.7314,0 -22.8458,-22.8457 -22.8458,-59.8857 0,-82.7314 22.8457,-22.8458 59.8858,-22.8458 82.7314,0" /></g><g
           transform="matrix(1.5,0,0,-1.5,425.25,90.75)"
           id="g152"><text
             id="text154"
             style="font-variant:normal;font-size:12px;font-family:HiraginoSans;-inkscape-font-specification:HiraginoSans-W3;writing-mode:lr-tb;fill:#000000;fill-opacity:1;fill-rule:nonzero;stroke:none"
             transform="translate(-36,1.999994)"><tspan
               id="tspan156"
               y="0"
               x="0 12 24 36 48 60">（プロセス）</tspan></text>
</g></g></g></g></svg>