<?xml version="1.0" encoding="UTF-8" standalone="no"?>
<svg
   xmlns:dc="http://purl.org/dc/elements/1.1/"
   xmlns:cc="http://creativecommons.org/ns#"
   xmlns:rdf="http://www.w3.org/1999/02/22-rdf-syntax-ns#"
   xmlns:svg="http://www.w3.org/2000/svg"
   xmlns="http://www.w3.org/2000/svg"
   viewBox="0 0 708.75 268.125"
   height="268.125"
   width="708.75"
   xml:space="preserve"
   version="1.1"
   id="svg2"><metadata
     id="metadata8"><rdf:RDF><cc:Work
         rdf:about=""><dc:format>image/svg+xml</dc:format><dc:type
           rdf:resource="http://purl.org/dc/dcmitype/StillImage" /></cc:Work></rdf:RDF></metadata><defs
     id="defs6"><clipPath
       id="clipPath18"
       clipPathUnits="userSpaceOnUse"><path
         id="path20"
         d="m 0,0 567,0 0,214.5 -567,0 L 0,0 Z" /></clipPath></defs><g
     transform="matrix(1.25,0,0,-1.25,0,268.125)"
     id="g10"><g
       id="g12" /><g
       id="g14"><g
         clip-path="url(#clipPath18)"
         id="g16"><path
           id="path22"
           style="fill:#ffffff;fill-opacity:1;fill-rule:nonzero;stroke:none"
           d="M 3,198 150,198 150,10.5 3,10.5 3,198 Z" /><g
           transform="matrix(1.5,0,0,-1.5,-130.5,403.5)"
           id="g24"><path
             id="path26"
             style="fill:none;stroke:#000000;stroke-width:1;stroke-linecap:round;stroke-linejoin:round;stroke-miterlimit:10;stroke-dasharray:none;stroke-opacity:1"
             d="m 89,137 98,0 0,125 -98,0 0,-125 z" /></g><g
           transform="matrix(1.5,0,0,-1.5,76.5,104.25)"
           id="g28"><text
             id="text30"
             style="font-variant:normal;font-size:12px;font-family:HiraginoSans;-inkscape-font-specification:HiraginoSans-W3;writing-mode:lr-tb;fill:#000000;fill-opacity:1;fill-rule:nonzero;stroke:none"
             transform="translate(-17.82,1.999994)"><tspan
               id="tspan32"
               y="0"
               x="0 11.64 23.639999">ユーザ</tspan></text>
</g><path
           id="path34"
           style="fill:#ffffff;fill-opacity:1;fill-rule:nonzero;stroke:none"
           d="m 533.4658,180.9658 c 40.7123,-40.7121 40.7123,-106.71947 0,-147.4316 -40.7121,-40.712336 -106.7195,-40.712336 -147.4316,0 -40.7123,40.71213 -40.7123,106.7195 0,147.4316 40.7121,40.7123 106.7195,40.7123 147.4316,0" /><g
           transform="matrix(1.5,0,0,-1.5,-130.5,403.5)"
           id="g36"><path
             id="path38"
             style="fill:none;stroke:#000000;stroke-width:1;stroke-linecap:round;stroke-linejoin:round;stroke-miterlimit:10;stroke-dasharray:none;stroke-opacity:1"
             d="m 442.6439,148.3561 c 27.1415,27.1415 27.1415,71.1463 0,98.2878 -27.1415,27.1415 -71.1463,27.1415 -98.2878,0 -27.1415,-27.1415 -27.1415,-71.1463 0,-98.2878 27.1415,-27.1415 71.1463,-27.1415 98.2878,0" /></g><g
           transform="matrix(1.5,0,0,-1.5,459.75,107.25)"
           id="g40"><text
             id="text42"
             style="font-variant:normal;font-size:12px;font-family:HiraginoSans;-inkscape-font-specification:HiraginoSans-W3;writing-mode:lr-tb;fill:#000000;fill-opacity:1;fill-rule:nonzero;stroke:none"
             transform="translate(-36,-7.000012)"><tspan
               id="tspan44"
               y="0"
               x="0 12 24 36 48 60">カロリー計算</tspan></text>
</g><g
           transform="matrix(1.5,0,0,-1.5,459.75,107.25)"
           id="g46"><text
             id="text48"
             style="font-variant:normal;font-size:12px;font-family:HiraginoSans;-inkscape-font-specification:HiraginoSans-W3;writing-mode:lr-tb;fill:#000000;fill-opacity:1;fill-rule:nonzero;stroke:none"
             transform="translate(-29.7,11)"><tspan
               id="tspan50"
               y="0"
               x="0 12 24 36 47.400002">プログラム</tspan></text>
</g><g
           transform="matrix(1.5,0,0,-1.5,-130.5,403.5)"
           id="g52"><path
             id="path54"
             style="fill:none;stroke:#000000;stroke-width:1;stroke-linecap:round;stroke-linejoin:round;stroke-miterlimit:10;stroke-dasharray:none;stroke-opacity:1"
             d="m 187,199.5 127.101,-1.8555" /></g><path
           id="path56"
           style="fill:#000000;fill-opacity:1;fill-rule:nonzero;stroke:none"
           d="m 352.6503,107.2084 -12.0645,4.3244 0.1314,-8.9991 11.9331,4.6747 z" /><g
           transform="matrix(1.5,0,0,-1.5,-130.5,403.5)"
           id="g58"><path
             id="path60"
             style="fill:none;stroke:#000000;stroke-width:1;stroke-linecap:butt;stroke-linejoin:miter;stroke-miterlimit:10;stroke-dasharray:none;stroke-opacity:1"
             d="m 322.1002,197.5277 -8.043,-2.8829 0.0876,5.9994 7.9554,-3.1165 z" /></g><g
           transform="matrix(1.5,0,0,-1.5,243,155.25)"
           id="g62"><text
             id="text64"
             style="font-variant:normal;font-size:12px;font-family:HiraginoSans;-inkscape-font-specification:HiraginoSans-W3;writing-mode:lr-tb;fill:#000000;fill-opacity:1;fill-rule:nonzero;stroke:none"
             transform="translate(-36,-7.000012)"><tspan
               id="tspan66"
               y="0"
               x="0 12 24 36 48 60">食品登録情報</tspan></text>
</g><g
           transform="matrix(1.5,0,0,-1.5,243,155.25)"
           id="g68"><text
             id="text70"
             style="font-variant:normal;font-size:12px;font-family:HiraginoSans;-inkscape-font-specification:HiraginoSans-W3;writing-mode:lr-tb;fill:#000000;fill-opacity:1;fill-rule:nonzero;stroke:none"
             transform="translate(-48,11)"><tspan
               id="tspan72"
               y="0"
               x="0 12 24 36 48 60 72 84">食べたものの情報</tspan></text>
</g><g
           transform="matrix(1.5,0,0,-1.5,-130.5,403.5)"
           id="g74"><path
             id="path76"
             style="fill:none;stroke:#000000;stroke-width:1;stroke-linecap:round;stroke-linejoin:round;stroke-miterlimit:10;stroke-dasharray:none;stroke-opacity:1"
             d="m 326.4053,215.6712 -129.5108,4.3312" /></g><path
           id="path78"
           style="fill:#000000;fill-opacity:1;fill-rule:nonzero;stroke:none"
           d="m 152.8484,73.09525 12.1437,-4.09639 -0.3008,8.99497 -11.8429,-4.89858 z" /><g
           transform="matrix(1.5,0,0,-1.5,-130.5,403.5)"
           id="g80"><path
             id="path82"
             style="fill:none;stroke:#000000;stroke-width:1;stroke-linecap:butt;stroke-linejoin:miter;stroke-miterlimit:10;stroke-dasharray:none;stroke-opacity:1"
             d="m 188.8989,220.2698 8.0958,2.731 -0.2005,-5.9967 -7.8953,3.2657 z" /></g><g
           transform="matrix(1.5,0,0,-1.5,261,30.75)"
           id="g84"><text
             id="text86"
             style="font-variant:normal;font-size:12px;font-family:HiraginoSans;-inkscape-font-specification:HiraginoSans-W3;writing-mode:lr-tb;fill:#000000;fill-opacity:1;fill-rule:nonzero;stroke:none"
             transform="translate(-54,-7.000012)"><tspan
               id="tspan88"
               y="0"
               x="0 12 24 36 48 60 72 84 96">登録済み食品名一覧</tspan></text>
</g><g
           transform="matrix(1.5,0,0,-1.5,261,30.75)"
           id="g90"><text
             id="text92"
             style="font-variant:normal;font-size:12px;font-family:HiraginoSans;-inkscape-font-specification:HiraginoSans-W3;writing-mode:lr-tb;fill:#000000;fill-opacity:1;fill-rule:nonzero;stroke:none"
             transform="translate(-30,11)"><tspan
               id="tspan94"
               y="0"
               x="0 12 24 36 48">総カロリー</tspan></text>
</g></g></g></g></svg>