<?xml version="1.0" encoding="UTF-8" standalone="no"?>
<svg
   xmlns:dc="http://purl.org/dc/elements/1.1/"
   xmlns:cc="http://creativecommons.org/ns#"
   xmlns:rdf="http://www.w3.org/1999/02/22-rdf-syntax-ns#"
   xmlns:svg="http://www.w3.org/2000/svg"
   xmlns="http://www.w3.org/2000/svg"
   viewBox="0 0 757.5 410.625"
   height="410.625"
   width="757.5"
   xml:space="preserve"
   version="1.1"
   id="svg2"><metadata
     id="metadata8"><rdf:RDF><cc:Work
         rdf:about=""><dc:format>image/svg+xml</dc:format><dc:type
           rdf:resource="http://purl.org/dc/dcmitype/StillImage" /></cc:Work></rdf:RDF></metadata><defs
     id="defs6"><clipPath
       id="clipPath18"
       clipPathUnits="userSpaceOnUse"><path
         id="path20"
         d="m 0,0 606,0 0,328.5 -606,0 L 0,0 Z" /></clipPath></defs><g
     transform="matrix(1.25,0,0,-1.25,0,410.625)"
     id="g10"><g
       id="g12" /><g
       id="g14"><g
         clip-path="url(#clipPath18)"
         id="g16"><path
           id="path22"
           style="fill:#ffffff;fill-opacity:1;fill-rule:nonzero;stroke:none"
           d="m 3.5,189.25 123,0 0,-114 -123,0 0,114 z" /><g
           transform="matrix(1.5,0,0,-1.5,-203.5,389.5)"
           id="g24"><path
             id="path26"
             style="fill:none;stroke:#000000;stroke-width:1;stroke-linecap:round;stroke-linejoin:round;stroke-miterlimit:10;stroke-dasharray:none;stroke-opacity:1"
             d="m 138,133.5 82,0 0,76 -82,0 0,-76 z" /></g><g
           transform="matrix(1.5,0,0,-1.5,64.5,132.75)"
           id="g28"><text
             id="text30"
             style="font-variant:normal;font-size:12px;font-family:HiraginoSans;-inkscape-font-specification:HiraginoSans-W3;writing-mode:lr-tb;fill:#000000;fill-opacity:1;fill-rule:nonzero;stroke:none"
             transform="translate(-23.64,1.999994)"><tspan
               id="tspan32"
               y="0"
               x="0 11.64 23.280001 35.279999">モニター</tspan></text>
</g><path
           id="path34"
           style="fill:#ffffff;fill-opacity:1;fill-rule:nonzero;stroke:none"
           d="m 351.4493,305.4493 c 26.0676,-26.0675 26.0676,-68.3311 0,-94.3986 -26.0675,-26.0676 -68.3311,-26.0676 -94.3986,0 -26.0676,26.0675 -26.0676,68.3311 0,94.3986 26.0675,26.0676 68.3311,26.0676 94.3986,0" /><g
           transform="matrix(1.5,0,0,-1.5,-203.5,389.5)"
           id="g36"><path
             id="path38"
             style="fill:none;stroke:#000000;stroke-width:1;stroke-linecap:round;stroke-linejoin:round;stroke-miterlimit:10;stroke-dasharray:none;stroke-opacity:1"
             d="m 369.9662,56.03378 c 17.3784,17.37832 17.3784,45.55412 0,62.93242 -17.3783,17.3784 -45.5541,17.3784 -62.9324,0 -17.3784,-17.3783 -17.3784,-45.5541 0,-62.93242 17.3783,-17.3784 45.5541,-17.3784 62.9324,0" /></g><g
           transform="matrix(1.5,0,0,-1.5,303.75,258.75)"
           id="g40"><text
             id="text42"
             style="font-variant:normal;font-size:12px;font-family:HiraginoSans;-inkscape-font-specification:HiraginoSans-W3;writing-mode:lr-tb;fill:#000000;fill-opacity:1;fill-rule:nonzero;stroke:none"
             transform="translate(-23.304,1.999994)"><tspan
               id="tspan44"
               y="0"
               x="0 6.4439998 13.944 19.104 23.808001 29.82 32.604 35.459999 41.903999">sort_list</tspan></text>
</g><g
           transform="matrix(1.5,0,0,-1.5,-203.5,389.5)"
           id="g46"><path
             id="path48"
             style="fill:none;stroke:#000000;stroke-width:1;stroke-linecap:round;stroke-linejoin:round;stroke-miterlimit:10;stroke-dasharray:none;stroke-opacity:1"
             d="m 381.4599,75.86522 78.8719,59.19228" /></g><path
           id="path50"
           style="fill:#000000;fill-opacity:1;fill-rule:nonzero;stroke:none"
           d="m 496.5955,179.7107 -6.8966,10.8022 -5.4022,-7.1984 12.2988,-3.6038 z" /><g
           transform="matrix(1.5,0,0,-1.5,-203.5,389.5)"
           id="g52"><path
             id="path54"
             style="fill:none;stroke:#000000;stroke-width:1;stroke-linecap:butt;stroke-linejoin:miter;stroke-miterlimit:10;stroke-dasharray:none;stroke-opacity:1"
             d="m 466.7304,139.8595 -4.5978,-7.2014 -3.6015,4.7989 8.1993,2.4025 z" /></g><g
           transform="matrix(1.5,0,0,-1.5,-203.5,389.5)"
           id="g56"><path
             id="path58"
             style="fill:none;stroke:#000000;stroke-width:1;stroke-linecap:round;stroke-linejoin:round;stroke-miterlimit:10;stroke-dasharray:none;stroke-opacity:1"
             d="M 445,156.25 385.2775,115.2403" /></g><path
           id="path60"
           style="fill:#000000;fill-opacity:1;fill-rule:nonzero;stroke:none"
           d="m 364.524,223.4323 7.345,-10.5024 5.0946,7.4192 -12.4396,3.0832 z" /><g
           transform="matrix(1.5,0,0,-1.5,-203.5,389.5)"
           id="g62"><path
             id="path64"
             style="fill:none;stroke:#000000;stroke-width:1;stroke-linecap:butt;stroke-linejoin:miter;stroke-miterlimit:10;stroke-dasharray:none;stroke-opacity:1"
             d="m 378.6826,110.7118 4.8967,7.0016 3.3964,-4.9461 -8.2931,-2.0555 z" /></g><path
           id="path66"
           style="fill:#ffffff;fill-opacity:1;fill-rule:nonzero;stroke:none"
           d="m 342.4493,116.4493 c 26.0676,-26.06745 26.0676,-68.33115 0,-94.39863 -26.0675,-26.067606 -68.3311,-26.067606 -94.3986,0 -26.0676,26.06748 -26.0676,68.33118 0,94.39863 26.0675,26.0676 68.3311,26.0676 94.3986,0" /><g
           transform="matrix(1.5,0,0,-1.5,-203.5,389.5)"
           id="g68"><path
             id="path70"
             style="fill:none;stroke:#000000;stroke-width:1;stroke-linecap:round;stroke-linejoin:round;stroke-miterlimit:10;stroke-dasharray:none;stroke-opacity:1"
             d="m 363.9662,182.0338 c 17.3784,17.3783 17.3784,45.5541 0,62.9324 -17.3783,17.3784 -45.5541,17.3784 -62.9324,0 -17.3784,-17.3783 -17.3784,-45.5541 0,-62.9324 17.3783,-17.3784 45.5541,-17.3784 62.9324,0" /></g><g
           transform="matrix(1.5,0,0,-1.5,294.75,69.75)"
           id="g72"><text
             id="text74"
             style="font-variant:normal;font-size:12px;font-family:HiraginoSans;-inkscape-font-specification:HiraginoSans-W3;writing-mode:lr-tb;fill:#000000;fill-opacity:1;fill-rule:nonzero;stroke:none"
             transform="translate(-28.08,1.999994)"><tspan
               id="tspan76"
               y="0"
               x="0 6.9359999 13.836 16.620001 23.556 29.568001 34.271999 41.771999 46.476002 53.375999">calc_total</tspan></text>
</g><path
           id="path78"
           style="fill:#ffffff;fill-opacity:1;fill-rule:nonzero;stroke:none"
           d="m 464,178 139.5,0 0,-91.5 -139.5,0 0,91.5 z" /><g
           transform="matrix(1.5,0,0,-1.5,-203.5,389.5)"
           id="g80"><path
             id="path82"
             style="fill:none;stroke:#000000;stroke-width:1;stroke-linecap:round;stroke-linejoin:round;stroke-miterlimit:10;stroke-dasharray:none;stroke-opacity:1"
             d="m 445,141 93,0 m 0,61 -93,0" /></g><g
           transform="matrix(1.5,0,0,-1.5,533.25,132.75)"
           id="g84"><text
             id="text86"
             style="font-variant:normal;font-size:12px;font-family:HiraginoSans;-inkscape-font-specification:HiraginoSans-W3;writing-mode:lr-tb;fill:#000000;fill-opacity:1;fill-rule:nonzero;stroke:none"
             transform="translate(-12,-7.000012)"><tspan
               id="tspan88"
               y="0"
               x="0 12">情報</tspan></text>
</g><g
           transform="matrix(1.5,0,0,-1.5,533.25,132.75)"
           id="g90"><text
             id="text92"
             style="font-variant:normal;font-size:12px;font-family:HiraginoSans;-inkscape-font-specification:HiraginoSans-W3;writing-mode:lr-tb;fill:#000000;fill-opacity:1;fill-rule:nonzero;stroke:none"
             transform="translate(-33.81,11)"><tspan
               id="tspan94"
               y="0"
               x="0 4.2719998 8.9759998 15.624 23.388 30.444 33.324001 37.32 44.543999 47.532001 55.560001 63.348">(type: LIST)</tspan></text>
</g><g
           transform="matrix(1.5,0,0,-1.5,-203.5,389.5)"
           id="g96"><path
             id="path98"
             style="fill:none;stroke:#000000;stroke-width:1;stroke-linecap:round;stroke-linejoin:round;stroke-miterlimit:10;stroke-dasharray:none;stroke-opacity:1"
             d="m 445,186.75 -59.866,13.0125" /></g><path
           id="path100"
           style="fill:#000000;fill-opacity:1;fill-rule:nonzero;stroke:none"
           d="m 362.4748,87.3075 12.682,-1.84851 -1.9116,8.79464 -10.7704,-6.94613 z" /><g
           transform="matrix(1.5,0,0,-1.5,-203.5,389.5)"
           id="g102"><path
             id="path104"
             style="fill:none;stroke:#000000;stroke-width:1;stroke-linecap:butt;stroke-linejoin:miter;stroke-miterlimit:10;stroke-dasharray:none;stroke-opacity:1"
             d="m 377.3165,201.4617 8.4547,1.2323 -1.2744,-5.8631 -7.1803,4.6308 z" /></g><g
           transform="matrix(1.5,0,0,-1.5,-203.5,389.5)"
           id="g106"><path
             id="path108"
             style="fill:none;stroke:#000000;stroke-width:1;stroke-linecap:round;stroke-linejoin:round;stroke-miterlimit:10;stroke-dasharray:none;stroke-opacity:1"
             d="M 288,213.5 229.0903,188.088" /></g><path
           id="path110"
           style="fill:#000000;fill-opacity:1;fill-rule:nonzero;stroke:none"
           d="m 129.1169,112.1211 9.2361,-8.885 3.5648,8.2639 -12.8009,0.6211 z" /><g
           transform="matrix(1.5,0,0,-1.5,-203.5,389.5)"
           id="g112"><path
             id="path114"
             style="fill:none;stroke:#000000;stroke-width:1;stroke-linecap:butt;stroke-linejoin:miter;stroke-miterlimit:10;stroke-dasharray:none;stroke-opacity:1"
             d="m 221.7446,184.9192 6.1574,5.9234 2.3766,-5.5093 -8.534,-0.4141 z" /></g><g
           transform="matrix(1.5,0,0,-1.5,172.5,57.75)"
           id="g116"><text
             id="text118"
             style="font-variant:normal;font-size:12px;font-family:HiraginoSans;-inkscape-font-specification:HiraginoSans-W3;writing-mode:lr-tb;fill:#000000;fill-opacity:1;fill-rule:nonzero;stroke:none"
             transform="translate(-12,1.999994)"><tspan
               id="tspan120"
               y="0"
               x="0 12">合計</tspan></text>
</g><g
           transform="matrix(1.5,0,0,-1.5,415.5,69.75)"
           id="g122"><text
             id="text124"
             style="font-variant:normal;font-size:12px;font-family:HiraginoSans;-inkscape-font-specification:HiraginoSans-W3;writing-mode:lr-tb;fill:#000000;fill-opacity:1;fill-rule:nonzero;stroke:none"
             transform="translate(-18,1.999994)"><tspan
               id="tspan126"
               y="0"
               x="0 12 24">全情報</tspan></text>
</g><g
           transform="matrix(1.5,0,0,-1.5,379.5,164.25)"
           id="g128"><text
             id="text130"
             style="font-variant:normal;font-size:12px;font-family:HiraginoSans;-inkscape-font-specification:HiraginoSans-W3;writing-mode:lr-tb;fill:#000000;fill-opacity:1;fill-rule:nonzero;stroke:none"
             transform="translate(-18,1.999994)"><tspan
               id="tspan132"
               y="0"
               x="0 12 24">全情報</tspan></text>
</g><g
           transform="matrix(1.5,0,0,-1.5,448.5,255.75)"
           id="g134"><text
             id="text136"
             style="font-variant:normal;font-size:12px;font-family:HiraginoSans;-inkscape-font-specification:HiraginoSans-W3;writing-mode:lr-tb;fill:#000000;fill-opacity:1;fill-rule:nonzero;stroke:none"
             transform="translate(-18,1.999994)"><tspan
               id="tspan138"
               y="0"
               x="0 12 24">全情報</tspan></text>
</g></g></g></g></svg>