<?xml version="1.0" encoding="UTF-8" standalone="no"?><svg xmlns="http://www.w3.org/2000/svg" xmlns:xlink="http://www.w3.org/1999/xlink" contentScriptType="application/ecmascript" contentStyleType="text/css" height="386px" preserveAspectRatio="none" style="width:826px;height:386px;" version="1.1" viewBox="0 0 826 386" width="826px" zoomAndPan="magnify"><defs/><g><rect fill="#FFFFFF" height="159.2422" style="stroke: #A80036; stroke-width: 2.0;" width="20" x="43" y="184.9766"/><rect fill="#FFFFFF" height="135.2422" style="stroke: #A80036; stroke-width: 2.0;" width="20" x="293" y="184.9766"/><rect fill="#FFFFFF" height="28" style="stroke: #A80036; stroke-width: 2.0;" width="20" x="653" y="227.5977"/><line style="stroke: #A80036; stroke-width: 2.0; stroke-dasharray: 5.0,5.0;" x1="52" x2="52" y1="164.9766" y2="362.2188"/><line style="stroke: #A80036; stroke-width: 2.0; stroke-dasharray: 5.0,5.0;" x1="303" x2="303" y1="164.9766" y2="362.2188"/><line style="stroke: #A80036; stroke-width: 2.0; stroke-dasharray: 5.0,5.0;" x1="662" x2="662" y1="164.9766" y2="362.2188"/><text fill="#000000" font-family="sans-serif" font-size="28" lengthAdjust="spacingAndGlyphs" textLength="62" x="16" y="159.0703">User</text><ellipse cx="53" cy="26" fill="#FEFECE" rx="16" ry="16" style="stroke: #A80036; stroke-width: 4.0;"/><path d="M53,42 L53,96 M27,58 L79,58 M53,96 L27,126 M53,96 L79,126 " fill="none" style="stroke: #A80036; stroke-width: 4.0;"/><rect fill="#FEFECE" height="60.9766" style="stroke: #A80036; stroke-width: 3.0;" width="292" x="157" y="102"/><text fill="#000000" font-family="sans-serif" font-size="28" lengthAdjust="spacingAndGlyphs" textLength="264" x="171" y="143.0703">:FoodListController</text><rect fill="#FEFECE" height="60.9766" style="stroke: #A80036; stroke-width: 3.0;" width="262" x="532" y="102"/><text fill="#000000" font-family="sans-serif" font-size="28" lengthAdjust="spacingAndGlyphs" textLength="234" x="546" y="143.0703">foodList:FoodList</text><rect fill="#FFFFFF" height="159.2422" style="stroke: #A80036; stroke-width: 2.0;" width="20" x="43" y="184.9766"/><rect fill="#FFFFFF" height="135.2422" style="stroke: #A80036; stroke-width: 2.0;" width="20" x="293" y="184.9766"/><rect fill="#FFFFFF" height="28" style="stroke: #A80036; stroke-width: 2.0;" width="20" x="653" y="227.5977"/><polygon fill="#A80036" points="629,219.5977,649,227.5977,629,235.5977,637,227.5977" style="stroke: #A80036; stroke-width: 2.0;"/><line style="stroke: #A80036; stroke-width: 2.0;" x1="313" x2="641" y1="227.5977" y2="227.5977"/><text fill="#000000" font-family="sans-serif" font-size="26" lengthAdjust="spacingAndGlyphs" textLength="302" x="327" y="218.1133">list = getName():String[]</text><polygon fill="#A80036" points="335,247.5977,315,255.5977,335,263.5977,327,255.5977" style="stroke: #A80036; stroke-width: 2.0;"/><line style="stroke: #A80036; stroke-width: 2.0; stroke-dasharray: 2.0,2.0;" x1="323" x2="661" y1="255.5977" y2="255.5977"/><line style="stroke: #A80036; stroke-width: 2.0;" x1="63" x2="83" y1="320.2188" y2="312.2188"/><line style="stroke: #A80036; stroke-width: 2.0;" x1="63" x2="83" y1="320.2188" y2="328.2188"/><line style="stroke: #A80036; stroke-width: 2.0;" x1="63" x2="301" y1="320.2188" y2="320.2188"/><text fill="#000000" font-family="sans-serif" font-size="26" lengthAdjust="spacingAndGlyphs" textLength="182" x="97" y="310.7344">食品一覧の表示</text><path d="M322,281.5977 L322,331.5977 L802,331.5977 L802,301.5977 L782,281.5977 L322,281.5977 " fill="#FBFB77" style="stroke: #A80036; stroke-width: 2.0;"/><path d="M782,281.5977 L782,301.5977 L802,301.5977 L782,281.5977 " fill="#FBFB77" style="stroke: #A80036; stroke-width: 2.0;"/><text fill="#000000" font-family="sans-serif" font-size="26" lengthAdjust="spacingAndGlyphs" textLength="438" x="334" y="316.7344">list から食品一覧の文字列を作成する</text><!--
@startuml
skinparam shadowing false
scale 2
hide footbox

actor "User" as user
participant ":FoodListController" as FoodListController
participant "foodList:FoodList" as foodList

activate user
activate FoodListController
FoodListController -> foodList: list = getName():String[]
activate foodList
FoodListController <- - foodList
deactivate foodList
FoodListController ->> user: 食品一覧の表示
note right
list から食品一覧の文字列を作成する
endnote
deactivate FoodListController

@enduml

PlantUML version 1.2018.08(Sun Jun 24 21:31:00 JST 2018)
(GPL source distribution)
Java Runtime: Java(TM) SE Runtime Environment
JVM: Java HotSpot(TM) 64-Bit Server VM
Java Version: 1.8.0_102-b14
Operating System: Mac OS X
OS Version: 10.11.6
Default Encoding: UTF-8
Language: ja
Country: JP
--></g></svg>