<?xml version="1.0" encoding="UTF-8" standalone="no"?><svg xmlns="http://www.w3.org/2000/svg" xmlns:xlink="http://www.w3.org/1999/xlink" contentScriptType="application/ecmascript" contentStyleType="text/css" height="614px" preserveAspectRatio="none" style="width:1004px;height:614px;" version="1.1" viewBox="0 0 1004 614" width="1004px" zoomAndPan="magnify"><defs/><g><rect fill="#FFFFFF" height="442.3477" style="stroke: #A80036; stroke-width: 2.0;" width="20" x="268" y="131.5977"/><rect fill="#FFFFFF" height="28" style="stroke: #A80036; stroke-width: 2.0;" width="20" x="676" y="370.7031"/><rect fill="#FFFFFF" height="205.8633" style="stroke: #000000; stroke-width: 4.0;" width="599" x="201" y="293.4609"/><line style="stroke: #A80036; stroke-width: 2.0; stroke-dasharray: 5.0,5.0;" x1="277" x2="277" y1="68.9766" y2="591.9453"/><line style="stroke: #A80036; stroke-width: 2.0; stroke-dasharray: 5.0,5.0;" x1="686" x2="686" y1="68.9766" y2="591.9453"/><rect fill="#FEFECE" height="60.9766" style="stroke: #A80036; stroke-width: 3.0;" width="114" x="221" y="6"/><text fill="#000000" font-family="sans-serif" font-size="28" lengthAdjust="spacingAndGlyphs" textLength="86" x="235" y="47.0703">:Meals</text><rect fill="#FEFECE" height="60.9766" style="stroke: #A80036; stroke-width: 3.0;" width="188" x="592" y="6"/><text fill="#000000" font-family="sans-serif" font-size="28" lengthAdjust="spacingAndGlyphs" textLength="160" x="606" y="47.0703">list[i]:Foods</text><rect fill="#FFFFFF" height="442.3477" style="stroke: #A80036; stroke-width: 2.0;" width="20" x="268" y="131.5977"/><rect fill="#FFFFFF" height="28" style="stroke: #A80036; stroke-width: 2.0;" width="20" x="676" y="370.7031"/><polygon fill="#A80036" points="244,123.5977,264,131.5977,244,139.5977,252,131.5977" style="stroke: #A80036; stroke-width: 2.0;"/><line style="stroke: #A80036; stroke-width: 2.0;" x1="6" x2="256" y1="131.5977" y2="131.5977"/><text fill="#000000" font-family="sans-serif" font-size="26" lengthAdjust="spacingAndGlyphs" textLength="224" x="20" y="122.1133">calcTotal():double</text><line style="stroke: #A80036; stroke-width: 2.0;" x1="288" x2="372" y1="213.8398" y2="213.8398"/><line style="stroke: #A80036; stroke-width: 2.0;" x1="372" x2="372" y1="213.8398" y2="239.8398"/><line style="stroke: #A80036; stroke-width: 2.0;" x1="290" x2="372" y1="239.8398" y2="239.8398"/><polygon fill="#A80036" points="310,231.8398,290,239.8398,310,247.8398,302,239.8398" style="stroke: #A80036; stroke-width: 2.0;"/><text fill="#000000" font-family="sans-serif" font-size="26" lengthAdjust="spacingAndGlyphs" textLength="110" x="302" y="204.3555">total = 0</text><path d="M436,157.5977 L436,267.5977 L980,267.5977 L980,177.5977 L960,157.5977 L436,157.5977 " fill="#FBFB77" style="stroke: #A80036; stroke-width: 2.0;"/><path d="M960,157.5977 L960,177.5977 L980,177.5977 L960,157.5977 " fill="#FBFB77" style="stroke: #A80036; stroke-width: 2.0;"/><text fill="#000000" font-family="sans-serif" font-size="26" lengthAdjust="spacingAndGlyphs" textLength="426" x="448" y="192.7344">count: これまでに登録された食品数</text><text fill="#000000" font-family="sans-serif" font-size="26" lengthAdjust="spacingAndGlyphs" textLength="502" x="448" y="223.3555">list[i]: i番目の食品（Foodsオブジェクト）</text><text fill="#000000" font-family="sans-serif" font-size="26" lengthAdjust="spacingAndGlyphs" textLength="294" x="448" y="253.9766">gram[i]: i番目のグラム数</text><path d="M201,293.4609 L349,293.4609 L349,307.4609 L329,327.4609 L201,327.4609 L201,293.4609 " fill="#EEEEEE" style="stroke: #000000; stroke-width: 2.0;"/><rect fill="none" height="205.8633" style="stroke: #000000; stroke-width: 4.0;" width="599" x="201" y="293.4609"/><text fill="#000000" font-family="sans-serif" font-size="26" font-weight="bold" lengthAdjust="spacingAndGlyphs" textLength="58" x="231" y="320.5977">loop</text><text fill="#000000" font-family="sans-serif" font-size="22" font-weight="bold" lengthAdjust="spacingAndGlyphs" textLength="258" x="379" y="318.7305">[for i=0; i&lt;count; i++]</text><polygon fill="#A80036" points="652,362.7031,672,370.7031,652,378.7031,660,370.7031" style="stroke: #A80036; stroke-width: 2.0;"/><line style="stroke: #A80036; stroke-width: 2.0;" x1="288" x2="664" y1="370.7031" y2="370.7031"/><text fill="#000000" font-family="sans-serif" font-size="26" lengthAdjust="spacingAndGlyphs" textLength="310" x="302" y="361.2188">cal = getCalorie():double</text><polygon fill="#A80036" points="310,390.7031,290,398.7031,310,406.7031,302,398.7031" style="stroke: #A80036; stroke-width: 2.0;"/><line style="stroke: #A80036; stroke-width: 2.0; stroke-dasharray: 2.0,2.0;" x1="298" x2="684" y1="398.7031" y2="398.7031"/><line style="stroke: #A80036; stroke-width: 2.0;" x1="288" x2="372" y1="457.3242" y2="457.3242"/><line style="stroke: #A80036; stroke-width: 2.0;" x1="372" x2="372" y1="457.3242" y2="483.3242"/><line style="stroke: #A80036; stroke-width: 2.0;" x1="290" x2="372" y1="483.3242" y2="483.3242"/><polygon fill="#A80036" points="310,475.3242,290,483.3242,310,491.3242,302,483.3242" style="stroke: #A80036; stroke-width: 2.0;"/><text fill="#000000" font-family="sans-serif" font-size="26" lengthAdjust="spacingAndGlyphs" textLength="360" x="302" y="447.8398">total += cal * (gram[i] / 100)</text><polygon fill="#A80036" points="28,547.9453,8,555.9453,28,563.9453,20,555.9453" style="stroke: #A80036; stroke-width: 2.0;"/><line style="stroke: #A80036; stroke-width: 2.0; stroke-dasharray: 2.0,2.0;" x1="16" x2="266" y1="555.9453" y2="555.9453"/><text fill="#000000" font-family="sans-serif" font-size="26" lengthAdjust="spacingAndGlyphs" textLength="58" x="40" y="546.4609">total</text><!--
@startuml
skinparam shadowing false
scale 2
hide footbox

participant ":Meals" as meal
participant "list[i]:Foods" as food

[->meal: calcTotal():double
activate meal
meal -> meal: total = 0
loop for i=0; i<count; i++
  note right
    count: これまでに登録された食品数
    list[i]: i番目の食品（Foodsオブジェクト）
    gram[i]: i番目のグラム数
  endnote
  meal -> food: cal = getCalorie():double
  activate food
  meal <- - food
  deactivate food
  meal -> meal: total += cal * (gram[i] / 100)
end
[<- -meal: total

@enduml

PlantUML version 1.2018.08(Sun Jun 24 21:31:00 JST 2018)
(GPL source distribution)
Java Runtime: Java(TM) SE Runtime Environment
JVM: Java HotSpot(TM) 64-Bit Server VM
Java Version: 1.8.0_102-b14
Operating System: Mac OS X
OS Version: 10.11.6
Default Encoding: UTF-8
Language: ja
Country: JP
--></g></svg>