<?xml version="1.0" encoding="UTF-8" standalone="no"?><svg xmlns="http://www.w3.org/2000/svg" xmlns:xlink="http://www.w3.org/1999/xlink" contentScriptType="application/ecmascript" contentStyleType="text/css" height="650px" preserveAspectRatio="none" style="width:544px;height:650px;" version="1.1" viewBox="0 0 544 650" width="544px" zoomAndPan="magnify"><defs/><g><text fill="#000000" font-family="sans-serif" font-size="14" font-weight="bold" lengthAdjust="spacingAndGlyphs" textLength="28" x="259" y="23.5352">全体</text><rect fill="#FFFFFF" height="506.9238" style="stroke: #A80036; stroke-width: 1.0;" width="10" x="36.5" y="122.9766"/><rect fill="#FFFFFF" height="29.3105" style="stroke: #A80036; stroke-width: 1.0;" width="10" x="41.5" y="168.5977"/><rect fill="#FFFFFF" height="506.9238" style="stroke: #A80036; stroke-width: 1.0;" width="10" x="161.5" y="122.9766"/><rect fill="#FFFFFF" height="59.6211" style="stroke: #A80036; stroke-width: 1.0;" width="10" x="305" y="251.5293"/><rect fill="#FFFFFF" height="59.6211" style="stroke: #A80036; stroke-width: 1.0;" width="10" x="305" y="355.416"/><rect fill="#FFFFFF" height="59.6211" style="stroke: #A80036; stroke-width: 1.0;" width="10" x="448" y="444.3477"/><rect fill="#FFFFFF" height="59.6211" style="stroke: #A80036; stroke-width: 1.0;" width="10" x="448" y="533.2793"/><rect fill="#FFFFFF" height="477.9238" style="stroke: #000000; stroke-width: 2.0;" width="520" x="13" y="129.9766"/><rect fill="#FFFFFF" height="387.9922" style="stroke: #000000; stroke-width: 2.0;" width="427" x="96" y="212.9082"/><rect fill="#FFFFFF" height="281.75" style="stroke: none; stroke-width: 1.0;" width="427" x="96" y="319.1504"/><line style="stroke: #A80036; stroke-width: 1.0; stroke-dasharray: 5.0,5.0;" x1="41" x2="41" y1="112.9766" y2="638.9004"/><line style="stroke: #A80036; stroke-width: 1.0; stroke-dasharray: 5.0,5.0;" x1="166" x2="166" y1="112.9766" y2="638.9004"/><line style="stroke: #A80036; stroke-width: 1.0; stroke-dasharray: 5.0,5.0;" x1="310" x2="310" y1="112.9766" y2="638.9004"/><line style="stroke: #A80036; stroke-width: 1.0; stroke-dasharray: 5.0,5.0;" x1="453" x2="453" y1="112.9766" y2="638.9004"/><text fill="#000000" font-family="sans-serif" font-size="14" lengthAdjust="spacingAndGlyphs" textLength="31" x="23" y="110.0234">User</text><ellipse cx="41.5" cy="43.4883" fill="#FEFECE" rx="8" ry="8" style="stroke: #A80036; stroke-width: 2.0;"/><path d="M41.5,51.4883 L41.5,78.4883 M28.5,59.4883 L54.5,59.4883 M41.5,78.4883 L28.5,93.4883 M41.5,78.4883 L54.5,93.4883 " fill="none" style="stroke: #A80036; stroke-width: 2.0;"/><rect fill="#FEFECE" height="30.4883" style="stroke: #A80036; stroke-width: 1.5;" width="121" x="106" y="81.4883"/><text fill="#000000" font-family="sans-serif" font-size="14" lengthAdjust="spacingAndGlyphs" textLength="107" x="113" y="102.0234">:MainController</text><rect fill="#FEFECE" height="30.4883" style="stroke: #A80036; stroke-width: 1.5;" width="146" x="237" y="81.4883"/><text fill="#000000" font-family="sans-serif" font-size="14" lengthAdjust="spacingAndGlyphs" textLength="132" x="244" y="102.0234">:FoodListController</text><rect fill="#FEFECE" height="30.4883" style="stroke: #A80036; stroke-width: 1.5;" width="120" x="393" y="81.4883"/><text fill="#000000" font-family="sans-serif" font-size="14" lengthAdjust="spacingAndGlyphs" textLength="106" x="400" y="102.0234">:MealController</text><rect fill="#FFFFFF" height="506.9238" style="stroke: #A80036; stroke-width: 1.0;" width="10" x="36.5" y="122.9766"/><rect fill="#FFFFFF" height="29.3105" style="stroke: #A80036; stroke-width: 1.0;" width="10" x="41.5" y="168.5977"/><rect fill="#FFFFFF" height="506.9238" style="stroke: #A80036; stroke-width: 1.0;" width="10" x="161.5" y="122.9766"/><rect fill="#FFFFFF" height="59.6211" style="stroke: #A80036; stroke-width: 1.0;" width="10" x="305" y="251.5293"/><rect fill="#FFFFFF" height="59.6211" style="stroke: #A80036; stroke-width: 1.0;" width="10" x="305" y="355.416"/><rect fill="#FFFFFF" height="59.6211" style="stroke: #A80036; stroke-width: 1.0;" width="10" x="448" y="444.3477"/><rect fill="#FFFFFF" height="59.6211" style="stroke: #A80036; stroke-width: 1.0;" width="10" x="448" y="533.2793"/><path d="M13,129.9766 L87,129.9766 L87,136.9766 L77,146.9766 L13,146.9766 L13,129.9766 " fill="#EEEEEE" style="stroke: #000000; stroke-width: 1.0;"/><rect fill="none" height="477.9238" style="stroke: #000000; stroke-width: 2.0;" width="520" x="13" y="129.9766"/><text fill="#000000" font-family="sans-serif" font-size="13" font-weight="bold" lengthAdjust="spacingAndGlyphs" textLength="29" x="28" y="143.5449">loop</text><text fill="#000000" font-family="sans-serif" font-size="11" font-weight="bold" lengthAdjust="spacingAndGlyphs" textLength="66" x="102" y="142.6113">[menu != 0]</text><polygon fill="#A80036" points="62.5,164.5977,52.5,168.5977,62.5,172.5977,58.5,168.5977" style="stroke: #A80036; stroke-width: 1.0;"/><line style="stroke: #A80036; stroke-width: 1.0;" x1="56.5" x2="160.5" y1="168.5977" y2="168.5977"/><text fill="#000000" font-family="sans-serif" font-size="13" lengthAdjust="spacingAndGlyphs" textLength="91" x="68.5" y="163.8555">メニューを入力</text><polygon fill="#A80036" points="149.5,193.9082,159.5,197.9082,149.5,201.9082,153.5,197.9082" style="stroke: #A80036; stroke-width: 1.0;"/><line style="stroke: #A80036; stroke-width: 1.0; stroke-dasharray: 2.0,2.0;" x1="46.5" x2="155.5" y1="197.9082" y2="197.9082"/><text fill="#000000" font-family="sans-serif" font-size="13" lengthAdjust="spacingAndGlyphs" textLength="35" x="53.5" y="193.166">menu</text><path d="M96,212.9082 L158,212.9082 L158,219.9082 L148,229.9082 L96,229.9082 L96,212.9082 " fill="#EEEEEE" style="stroke: #000000; stroke-width: 1.0;"/><rect fill="none" height="387.9922" style="stroke: #000000; stroke-width: 2.0;" width="427" x="96" y="212.9082"/><text fill="#000000" font-family="sans-serif" font-size="13" font-weight="bold" lengthAdjust="spacingAndGlyphs" textLength="17" x="111" y="226.4766">alt</text><text fill="#000000" font-family="sans-serif" font-size="11" font-weight="bold" lengthAdjust="spacingAndGlyphs" textLength="72" x="173" y="225.543">[menu == 1]</text><polygon fill="#A80036" points="293,247.5293,303,251.5293,293,255.5293,297,251.5293" style="stroke: #A80036; stroke-width: 1.0;"/><line style="stroke: #A80036; stroke-width: 1.0;" x1="171.5" x2="299" y1="251.5293" y2="251.5293"/><text fill="#000000" font-family="sans-serif" font-size="13" lengthAdjust="spacingAndGlyphs" textLength="79" x="178.5" y="246.7871">regist(): void</text><rect fill="#FFFFFF" height="40.6211" style="stroke: #000000; stroke-width: 2.0;" width="152" x="234" y="259.5293"/><polygon fill="#EEEEEE" points="234,259.5293,298,259.5293,298,266.5293,288,276.5293,234,276.5293,234,259.5293" style="stroke: #000000; stroke-width: 2.0;"/><text fill="#000000" font-family="sans-serif" font-size="13" font-weight="bold" lengthAdjust="spacingAndGlyphs" textLength="19" x="247" y="274.0977">ref</text><text fill="#000000" font-family="sans-serif" font-size="13" lengthAdjust="spacingAndGlyphs" textLength="36" x="292" y="293.0977">regist</text><polygon fill="#A80036" points="182.5,307.1504,172.5,311.1504,182.5,315.1504,178.5,311.1504" style="stroke: #A80036; stroke-width: 1.0;"/><line style="stroke: #A80036; stroke-width: 1.0; stroke-dasharray: 2.0,2.0;" x1="176.5" x2="309" y1="311.1504" y2="311.1504"/><line style="stroke: #000000; stroke-width: 1.0; stroke-dasharray: 2.0,2.0;" x1="96" x2="523" y1="320.1504" y2="320.1504"/><text fill="#000000" font-family="sans-serif" font-size="11" font-weight="bold" lengthAdjust="spacingAndGlyphs" textLength="72" x="101" y="330.7852">[menu == 2]</text><polygon fill="#A80036" points="293,351.416,303,355.416,293,359.416,297,355.416" style="stroke: #A80036; stroke-width: 1.0;"/><line style="stroke: #A80036; stroke-width: 1.0;" x1="171.5" x2="299" y1="355.416" y2="355.416"/><text fill="#000000" font-family="sans-serif" font-size="13" lengthAdjust="spacingAndGlyphs" textLength="111" x="178.5" y="350.6738">displayList(): void</text><rect fill="#FFFFFF" height="40.6211" style="stroke: #000000; stroke-width: 2.0;" width="152" x="234" y="363.416"/><polygon fill="#EEEEEE" points="234,363.416,298,363.416,298,370.416,288,380.416,234,380.416,234,363.416" style="stroke: #000000; stroke-width: 2.0;"/><text fill="#000000" font-family="sans-serif" font-size="13" font-weight="bold" lengthAdjust="spacingAndGlyphs" textLength="19" x="247" y="377.9844">ref</text><text fill="#000000" font-family="sans-serif" font-size="13" lengthAdjust="spacingAndGlyphs" textLength="68" x="276" y="396.9844">displayList</text><polygon fill="#A80036" points="182.5,411.0371,172.5,415.0371,182.5,419.0371,178.5,415.0371" style="stroke: #A80036; stroke-width: 1.0;"/><line style="stroke: #A80036; stroke-width: 1.0; stroke-dasharray: 2.0,2.0;" x1="176.5" x2="309" y1="415.0371" y2="415.0371"/><polygon fill="#A80036" points="436,440.3477,446,444.3477,436,448.3477,440,444.3477" style="stroke: #A80036; stroke-width: 1.0;"/><line style="stroke: #A80036; stroke-width: 1.0;" x1="171.5" x2="442" y1="444.3477" y2="444.3477"/><text fill="#000000" font-family="sans-serif" font-size="13" lengthAdjust="spacingAndGlyphs" textLength="77" x="178.5" y="439.6055">create():void</text><rect fill="#FFFFFF" height="40.6211" style="stroke: #000000; stroke-width: 2.0;" width="126" x="390" y="452.3477"/><polygon fill="#EEEEEE" points="390,452.3477,454,452.3477,454,459.3477,444,469.3477,390,469.3477,390,452.3477" style="stroke: #000000; stroke-width: 2.0;"/><text fill="#000000" font-family="sans-serif" font-size="13" font-weight="bold" lengthAdjust="spacingAndGlyphs" textLength="19" x="403" y="466.916">ref</text><text fill="#000000" font-family="sans-serif" font-size="13" lengthAdjust="spacingAndGlyphs" textLength="38" x="434" y="485.916">create</text><polygon fill="#A80036" points="182.5,499.9688,172.5,503.9688,182.5,507.9688,178.5,503.9688" style="stroke: #A80036; stroke-width: 1.0;"/><line style="stroke: #A80036; stroke-width: 1.0; stroke-dasharray: 2.0,2.0;" x1="176.5" x2="452" y1="503.9688" y2="503.9688"/><polygon fill="#A80036" points="436,529.2793,446,533.2793,436,537.2793,440,533.2793" style="stroke: #A80036; stroke-width: 1.0;"/><line style="stroke: #A80036; stroke-width: 1.0;" x1="171.5" x2="442" y1="533.2793" y2="533.2793"/><text fill="#000000" font-family="sans-serif" font-size="13" lengthAdjust="spacingAndGlyphs" textLength="68" x="178.5" y="528.5371">total():void</text><rect fill="#FFFFFF" height="40.6211" style="stroke: #000000; stroke-width: 2.0;" width="126" x="390" y="541.2793"/><polygon fill="#EEEEEE" points="390,541.2793,454,541.2793,454,548.2793,444,558.2793,390,558.2793,390,541.2793" style="stroke: #000000; stroke-width: 2.0;"/><text fill="#000000" font-family="sans-serif" font-size="13" font-weight="bold" lengthAdjust="spacingAndGlyphs" textLength="19" x="403" y="555.8477">ref</text><text fill="#000000" font-family="sans-serif" font-size="13" lengthAdjust="spacingAndGlyphs" textLength="29" x="438.5" y="574.8477">total</text><polygon fill="#A80036" points="182.5,588.9004,172.5,592.9004,182.5,596.9004,178.5,592.9004" style="stroke: #A80036; stroke-width: 1.0;"/><line style="stroke: #A80036; stroke-width: 1.0; stroke-dasharray: 2.0,2.0;" x1="176.5" x2="452" y1="592.9004" y2="592.9004"/><polygon fill="#A80036" points="57.5,616.9004,47.5,620.9004,57.5,624.9004,53.5,620.9004" style="stroke: #A80036; stroke-width: 1.0;"/><line style="stroke: #A80036; stroke-width: 1.0; stroke-dasharray: 2.0,2.0;" x1="51.5" x2="160.5" y1="620.9004" y2="620.9004"/><!--
@startuml
skinparam shadowing false
scale 1
hide footbox
title 全体

actor "User" as user
participant ":MainController" as MainController
participant ":FoodListController" as FoodListController
participant ":MealController" as MealController

activate user
activate MainController
loop menu != 0
MainController -> user: メニューを入力
activate user
user - -> MainController: menu
deactivate user
alt menu == 1
MainController -> FoodListController: regist(): void
activate FoodListController
ref over FoodListController: regist
MainController <- - FoodListController
deactivate FoodListController
else menu == 2
MainController -> FoodListController: displayList(): void
activate FoodListController
ref over FoodListController: displayList
MainController <- - FoodListController
deactivate FoodListController
MainController -> MealController: create():void
activate MealController
ref over MealController: create
MainController <- - MealController
deactivate MealController
MainController -> MealController: total():void
activate MealController
ref over MealController: total
MainController <- - MealController
deactivate MealController
end
end
user <- - MainController
@enduml

PlantUML version 1.2018.08(Sun Jun 24 21:31:00 JST 2018)
(GPL source distribution)
Java Runtime: Java(TM) SE Runtime Environment
JVM: Java HotSpot(TM) 64-Bit Server VM
Java Version: 1.8.0_102-b14
Operating System: Mac OS X
OS Version: 10.11.6
Default Encoding: UTF-8
Language: ja
Country: JP
--></g></svg>