<?xml version="1.0" encoding="UTF-8" standalone="no"?><svg xmlns="http://www.w3.org/2000/svg" xmlns:xlink="http://www.w3.org/1999/xlink" contentScriptType="application/ecmascript" contentStyleType="text/css" height="664px" preserveAspectRatio="none" style="width:990px;height:664px;" version="1.1" viewBox="0 0 990 664" width="990px" zoomAndPan="magnify"><defs/><g><rect fill="#FFFFFF" height="438.082" style="stroke: #A80036; stroke-width: 2.0;" width="20" x="43" y="184.9766"/><rect fill="#FFFFFF" height="58.6211" style="stroke: #A80036; stroke-width: 2.0;" width="20" x="53" y="227.5977"/><rect fill="#FFFFFF" height="58.6211" style="stroke: #A80036; stroke-width: 2.0;" width="20" x="53" y="344.8398"/><rect fill="#FFFFFF" height="438.082" style="stroke: #A80036; stroke-width: 2.0;" width="20" x="293" y="184.9766"/><rect fill="#FFFFFF" height="60" style="stroke: #A80036; stroke-width: 2.0;" width="20" x="590" y="545.0586"/><rect fill="#FEFECE" height="60.9766" style="stroke: #A80036; stroke-width: 3.0;" width="184" x="785" y="419.4609"/><text fill="#000000" font-family="sans-serif" font-size="28" lengthAdjust="spacingAndGlyphs" textLength="156" x="799" y="460.5313">food:Foods</text><line style="stroke: #A80036; stroke-width: 2.0; stroke-dasharray: 5.0,5.0;" x1="52" x2="52" y1="164.9766" y2="641.0586"/><line style="stroke: #A80036; stroke-width: 2.0; stroke-dasharray: 5.0,5.0;" x1="303" x2="303" y1="164.9766" y2="641.0586"/><line style="stroke: #A80036; stroke-width: 2.0; stroke-dasharray: 5.0,5.0;" x1="599" x2="599" y1="164.9766" y2="641.0586"/><line style="stroke: #A80036; stroke-width: 2.0; stroke-dasharray: 5.0,5.0;" x1="877" x2="877" y1="480.9492" y2="641.0586"/><text fill="#000000" font-family="sans-serif" font-size="28" lengthAdjust="spacingAndGlyphs" textLength="62" x="16" y="159.0703">User</text><ellipse cx="53" cy="26" fill="#FEFECE" rx="16" ry="16" style="stroke: #A80036; stroke-width: 4.0;"/><path d="M53,42 L53,96 M27,58 L79,58 M53,96 L27,126 M53,96 L79,126 " fill="none" style="stroke: #A80036; stroke-width: 4.0;"/><rect fill="#FEFECE" height="60.9766" style="stroke: #A80036; stroke-width: 3.0;" width="292" x="157" y="102"/><text fill="#000000" font-family="sans-serif" font-size="28" lengthAdjust="spacingAndGlyphs" textLength="264" x="171" y="143.0703">:FoodListController</text><rect fill="#FEFECE" height="60.9766" style="stroke: #A80036; stroke-width: 3.0;" width="262" x="469" y="102"/><text fill="#000000" font-family="sans-serif" font-size="28" lengthAdjust="spacingAndGlyphs" textLength="234" x="483" y="143.0703">foodList:FoodList</text><rect fill="#FFFFFF" height="438.082" style="stroke: #A80036; stroke-width: 2.0;" width="20" x="43" y="184.9766"/><rect fill="#FFFFFF" height="58.6211" style="stroke: #A80036; stroke-width: 2.0;" width="20" x="53" y="227.5977"/><rect fill="#FFFFFF" height="58.6211" style="stroke: #A80036; stroke-width: 2.0;" width="20" x="53" y="344.8398"/><rect fill="#FFFFFF" height="438.082" style="stroke: #A80036; stroke-width: 2.0;" width="20" x="293" y="184.9766"/><rect fill="#FFFFFF" height="60" style="stroke: #A80036; stroke-width: 2.0;" width="20" x="590" y="545.0586"/><polygon fill="#A80036" points="95,219.5977,75,227.5977,95,235.5977,87,227.5977" style="stroke: #A80036; stroke-width: 2.0;"/><line style="stroke: #A80036; stroke-width: 2.0;" x1="83" x2="291" y1="227.5977" y2="227.5977"/><text fill="#000000" font-family="sans-serif" font-size="26" lengthAdjust="spacingAndGlyphs" textLength="156" x="107" y="218.1133">食品名の入力</text><polygon fill="#A80036" points="269,278.2188,289,286.2188,269,294.2188,277,286.2188" style="stroke: #A80036; stroke-width: 2.0;"/><line style="stroke: #A80036; stroke-width: 2.0; stroke-dasharray: 2.0,2.0;" x1="63" x2="281" y1="286.2188" y2="286.2188"/><text fill="#000000" font-family="sans-serif" font-size="26" lengthAdjust="spacingAndGlyphs" textLength="68" x="77" y="276.7344">name</text><polygon fill="#A80036" points="95,336.8398,75,344.8398,95,352.8398,87,344.8398" style="stroke: #A80036; stroke-width: 2.0;"/><line style="stroke: #A80036; stroke-width: 2.0;" x1="83" x2="291" y1="344.8398" y2="344.8398"/><text fill="#000000" font-family="sans-serif" font-size="26" lengthAdjust="spacingAndGlyphs" textLength="182" x="107" y="335.3555">カロリーの入力</text><polygon fill="#A80036" points="269,395.4609,289,403.4609,269,411.4609,277,403.4609" style="stroke: #A80036; stroke-width: 2.0;"/><line style="stroke: #A80036; stroke-width: 2.0; stroke-dasharray: 2.0,2.0;" x1="63" x2="281" y1="403.4609" y2="403.4609"/><text fill="#000000" font-family="sans-serif" font-size="26" lengthAdjust="spacingAndGlyphs" textLength="84" x="77" y="393.9766">calorie</text><polygon fill="#A80036" points="761,454.082,781,462.082,761,470.082,769,462.082" style="stroke: #A80036; stroke-width: 2.0;"/><line style="stroke: #A80036; stroke-width: 2.0;" x1="313" x2="773" y1="462.082" y2="462.082"/><text fill="#000000" font-family="sans-serif" font-size="26" lengthAdjust="spacingAndGlyphs" textLength="424" x="327" y="452.5977">&lt;&lt;create&gt;&gt; Foods(name, calorie)</text><rect fill="#FEFECE" height="60.9766" style="stroke: #A80036; stroke-width: 3.0;" width="184" x="785" y="419.4609"/><text fill="#000000" font-family="sans-serif" font-size="28" lengthAdjust="spacingAndGlyphs" textLength="156" x="799" y="460.5313">food:Foods</text><polygon fill="#A80036" points="566,537.0586,586,545.0586,566,553.0586,574,545.0586" style="stroke: #A80036; stroke-width: 2.0;"/><line style="stroke: #A80036; stroke-width: 2.0;" x1="313" x2="578" y1="545.0586" y2="545.0586"/><text fill="#000000" font-family="sans-serif" font-size="26" lengthAdjust="spacingAndGlyphs" textLength="182" x="327" y="535.5742">add(food):void</text><!--
@startuml
skinparam shadowing false
scale 2
hide footbox

actor "User" as user
participant ":FoodListController" as FoodListController
participant "foodList:FoodList" as foodList
participant "food:Foods" as food

activate user
activate FoodListController
FoodListController -> user: 食品名の入力
activate user
user - -> FoodListController: name
deactivate user
FoodListController -> user: カロリーの入力
activate user
user - -> FoodListController: calorie
deactivate user
create food
FoodListController -> food: <<create>> Foods(name, calorie)
FoodListController -> foodList: add(food):void
activate foodList
deactivate foodList

@enduml

PlantUML version 1.2018.08(Sun Jun 24 21:31:00 JST 2018)
(GPL source distribution)
Java Runtime: Java(TM) SE Runtime Environment
JVM: Java HotSpot(TM) 64-Bit Server VM
Java Version: 1.8.0_102-b14
Operating System: Mac OS X
OS Version: 10.11.6
Default Encoding: UTF-8
Language: ja
Country: JP
--></g></svg>